<svg xmlns="http://www.w3.org/2000/svg" width="906.086" height="744.729" viewBox="0 0 906.086 744.729">
  <path id="Tracé_181" data-name="Tracé 181" d="M378.276,282C277.744,232.31,188.228,152.947,125.158,60.419,75.794-12,42.436-98.583,57.607-187.139,67.964-247.6,101.434-302.678,150.485-336.3a184.074,184.074,0,0,1,34.158-18.351c1.324-.551,2.661-1.076,3.995-1.6.8-.288,3.006-1.108,3.279-1.2,2.979-.989,5.957-1.955,8.973-2.827q5.414-1.565,10.913-2.815c1.719-.39,9.023-1.729,8.29-1.659,27.672-4.188,52.074-2.246,78.29,6.787,82.971,28.591,131.483,113.042,158.2,191.971,5.269,15.571,33.112,9.862,38.384-2.971,17.168-41.8,39.387-81.642,70.413-114.8A233.58,233.58,0,0,1,604.919-317.6,158.54,158.54,0,0,1,624.937-329.3q4.688-2.359,9.492-4.479c1.9-.837,3.808-1.625,5.721-2.42,1.011-.407,2.03-.8,3.046-1.195l1.438-.512c28.449-9.743,52.281-11.991,81.875-6.819,25.28,4.417,51.841,16.461,74.095,33.453,50.693,38.707,78.333,102.228,80.044,165.434C883.128-54.19,844.483,22.4,788.113,92.292,685.465,219.566,483.063,302.358,340.652,333.17c-128.82,27.871-13.461,13.527,65.547,0,131.448-22.507,253.356-24.09,395.458-180.206C868.841,79.155,915.987-27.9,920.257-129.629c3.041-72.413-21.956-144.16-76.231-193.362-50.522-45.8-121.29-62.858-187.425-47.5C576.13-351.8,517.621-290.073,479.23-219.481,450.624-284.8,407.2-344.736,341.527-376.069c-59.939-28.6-131.19-24.9-189.78,5.339C91.827-339.8,46.418-284.332,26.572-220.022-.594-132,20.279-41.141,64.394,37.691,168.557,228.952,396.453,290.978,378.276,282" transform="translate(-14.418 395.593)" fill="#e2097a"/>
</svg>
