<svg xmlns="http://www.w3.org/2000/svg" width="785.49" height="714.375" viewBox="0 0 785.49 714.375">
  <g id="Groupe_1622" data-name="Groupe 1622" transform="translate(-1001.353 -239.906)">
    <path id="Tracé_207" data-name="Tracé 207" d="M329.848,191.811C242.7,148.739,165.094,79.938,110.419-.274c-42.794-62.781-71.712-137.84-58.56-214.609C60.837-267.3,89.852-315.044,132.375-344.2A159.575,159.575,0,0,1,161.986-360.1c1.148-.478,2.306-.932,3.463-1.385.691-.25,2.606-.961,2.843-1.038,2.582-.857,5.164-1.695,7.779-2.451q4.694-1.357,9.461-2.44c1.49-.338,7.822-1.5,7.187-1.439,23.989-3.631,45.143-1.947,67.87,5.884,71.928,24.786,113.983,98,137.14,166.421,4.568,13.5,28.705,8.55,33.275-2.576,14.883-36.238,34.145-70.775,61.041-99.517a202.5,202.5,0,0,1,34.281-29.334,137.434,137.434,0,0,1,17.354-10.148q4.064-2.045,8.229-3.883c1.643-.726,3.3-1.408,4.96-2.1.877-.353,1.759-.7,2.64-1.036l1.247-.444c24.663-8.446,45.322-10.4,70.978-5.912,21.915,3.829,44.941,14.27,64.233,29,43.946,33.555,67.907,88.622,69.391,143.416C767.505-99.63,734-33.235,685.137,27.357,596.151,137.691,420.688,209.464,297.232,236.175c-111.674,24.161-88.68,93-20.188,81.274C391,297.937,573.689,215.291,696.879,79.954c58.242-63.985,99.112-156.8,102.814-244.981C802.329-227.8,780.66-290,733.608-332.654c-43.8-39.7-105.147-54.492-162.48-41.174-69.761,16.2-120.482,69.712-153.764,130.908C392.566-299.549,354.92-351.5,297.99-378.668c-51.962-24.792-113.729-21.585-164.521,4.628-51.944,26.81-91.31,74.9-108.515,130.649C1.4-167.08,19.5-88.317,57.742-19.977c90.3,165.8,287.863,219.575,272.105,211.788" transform="translate(986.936 635.5)" fill="#e2097a"/>
    <g id="Groupe_1337" data-name="Groupe 1337" transform="translate(636.219 -148.498)">
      <g id="Groupe_1336" data-name="Groupe 1336" transform="translate(603.055 927.47)">
        <path id="Tracé_1179" data-name="Tracé 1179" d="M607.829,1075.907l-4.577.88-.079-2.685,4.613-.888-.117-6.11-4.542.873-.072-2.653,4.577-.88-.121-7.279,2.851-.548.122,7.279,5.457-1.05-.121-7.278,2.851-.548.122,7.277,4.613-.885.036,2.657-4.577.88.081,6.118,4.577-.879.044,2.694-4.542.873.1,6.953-2.851.549-.132-6.948-5.457,1.049.131,6.95-2.852.546Zm8.265-4.292-.081-6.117-5.457,1.05.081,6.118Z" transform="translate(-603.055 -930.442)" fill="#fff"/>
        <path id="Tracé_1180" data-name="Tracé 1180" d="M627.282,1070.373l3.428-.767.235,1.051c.75,3.359,2.968,4.074,4.928,3.637,1.924-.43,3.6-1.979,2.871-5.233l-3.252-14.556-6.229,1.391-.673-3.009,9.693-2.166,3.933,17.6c1.2,5.355-2.063,8.361-5.666,9.166s-7.807-.57-8.995-5.887Z" transform="translate(-603.055 -930.442)" fill="#fff"/>
        <path id="Tracé_1181" data-name="Tracé 1181" d="M652.49,1054.19c4.976-1.242,8.541,1.786,9.679,6.343.112.452.26,1.488.26,1.488l-12.838,3.2a5.931,5.931,0,0,0,7.505,4.3,8.651,8.651,0,0,0,4.706-3.355l2.009,2.122a10.805,10.805,0,0,1-6.195,4.208,9.24,9.24,0,0,1-11.626-6.892C644.592,1060.006,647.48,1055.44,652.49,1054.19Zm5.965,6.125c-.859-3-3.1-3.994-5.365-3.429a5.2,5.2,0,0,0-4.029,5.773Z" transform="translate(-603.055 -930.442)" fill="#fff"/>
        <path id="Tracé_1182" data-name="Tracé 1182" d="M665.785,1046.945l-8.372,2.285-.812-2.974,20.169-5.507.812,2.976-8.372,2.285,5.856,21.448-3.424.936Z" transform="translate(-602.552 -930.442)" fill="#fff"/>
        <path id="Tracé_1183" data-name="Tracé 1183" d="M689.167,1051.619l.757-.223-.092-.31c-.845-2.854-2.745-3.338-4.946-2.687a9.2,9.2,0,0,0-4.35,3.12l-2.1-2.036a11.391,11.391,0,0,1,5.889-3.985c4.4-1.3,7.589.372,8.891,4.773l3.256,11-3.095.917-.488-1.65a13.293,13.293,0,0,1-.338-1.395l-.07.02a6.273,6.273,0,0,1-4.552,5.086c-2.992.886-6.453-.071-7.481-3.545C678.752,1054.963,686.244,1052.484,689.167,1051.619Zm-1.308,9.735c2.82-.833,3.767-4.33,3-6.908l-.163-.55-.859.254c-2.51.742-7,2.257-6.072,5.387C684.187,1060.945,685.693,1061.995,687.859,1061.354Z" transform="translate(-602.354 -930.442)" fill="#fff"/>
        <path id="Tracé_1184" data-name="Tracé 1184" d="M693.711,1035.6l3.352-1.055,1.065,3.386-3.352,1.054Zm2.187,6.83,3.318-1.044,5.448,17.306-3.318,1.045Z" transform="translate(-602.23 -930.442)" fill="#fff"/>
        <path id="Tracé_1185" data-name="Tracé 1185" d="M703.866,1040.028l3.188-1.093.78,2.273a12.839,12.839,0,0,1,.362,1.277l.069-.024a7.088,7.088,0,0,1,4.55-5.957c2.883-.987,5.034-.248,6.494,2.133l.067-.024a7.3,7.3,0,0,1,4.768-5.993c3.866-1.326,6.419.262,7.919,4.637l3.769,10.987-3.29,1.129-3.524-10.275c-.827-2.41-1.952-4.146-4.53-3.262-2.408.826-3.507,3.477-3.315,6.028a10.851,10.851,0,0,0,.576,2.454l2.688,7.835-3.291,1.128-3.523-10.276c-.768-2.238-1.816-4.191-4.462-3.283-2.51.861-3.563,3.533-3.371,6.2a10.122,10.122,0,0,0,.564,2.309l2.687,7.834-3.29,1.128Z" transform="translate(-602.073 -929.857)" fill="#fff"/>
        <path id="Tracé_1186" data-name="Tracé 1186" d="M741.208,1026.292c4.792-1.823,8.691.76,10.361,5.149.166.436.436,1.447.436,1.447l-12.366,4.706a5.931,5.931,0,0,0,7.961,3.378,8.648,8.648,0,0,0,4.274-3.891l2.246,1.869a10.809,10.809,0,0,1-5.65,4.912,9.239,9.239,0,0,1-12.362-5.463C734.056,1033.005,736.383,1028.129,741.208,1026.292Zm6.648,5.373c-1.21-2.877-3.554-3.6-5.733-2.767a5.2,5.2,0,0,0-3.315,6.21Z" transform="translate(-601.821 -929.609)" fill="#fff"/>
        <path id="Tracé_1187" data-name="Tracé 1187" d="M754.169,1032.072l3.251-1.334.408.995c1.306,3.187,3.612,3.518,5.471,2.758,1.824-.748,3.214-2.559,1.949-5.643l-5.658-13.8-5.905,2.421-1.17-2.854,9.189-3.768,6.842,16.688c2.081,5.077-.626,8.589-4.043,9.989s-7.791.753-9.858-4.29Z" transform="translate(-601.67 -929.405)" fill="#fff"/>
        <path id="Tracé_1188" data-name="Tracé 1188" d="M776.254,1011.892c4.692-2.067,8.718.313,10.61,4.61.188.428.509,1.422.509,1.422l-12.107,5.332a5.929,5.929,0,0,0,8.122,2.966,8.656,8.656,0,0,0,4.069-4.1l2.338,1.751a10.791,10.791,0,0,1-5.39,5.194,9.237,9.237,0,0,1-12.622-4.822C769.456,1018.96,771.53,1013.973,776.254,1011.892Zm6.914,5.024c-1.355-2.811-3.734-3.409-5.866-2.47a5.2,5.2,0,0,0-2.992,6.372Z" transform="translate(-601.49 -929.291)" fill="#fff"/>
        <path id="Tracé_1189" data-name="Tracé 1189" d="M788.069,1002.509l-7.855,3.687-1.311-2.791,18.924-8.884,1.311,2.792L791.283,1001l9.446,20.126-3.213,1.508Z" transform="translate(-601.399 -929.036)" fill="#fff"/>
        <path id="Tracé_1190" data-name="Tracé 1190" d="M806.95,997.445c4.588-2.292,8.724-.109,10.823,4.094.208.416.578,1.4.578,1.4l-11.838,5.912a5.931,5.931,0,0,0,8.258,2.569,8.658,8.658,0,0,0,3.866-4.3l2.421,1.637a10.8,10.8,0,0,1-5.134,5.45A9.24,9.24,0,0,1,803.08,1010C800.5,1004.834,802.331,999.752,806.95,997.445Zm7.152,4.686c-1.492-2.743-3.9-3.226-5.982-2.184a5.2,5.2,0,0,0-2.681,6.509Z" transform="translate(-601.198 -928.973)" fill="#fff"/>
        <path id="Tracé_1191" data-name="Tracé 1191" d="M814.514,986.048l8.15-4.379a7.559,7.559,0,0,1,10.766,3.213,7.646,7.646,0,0,1-3.211,10.845l-5.023,2.7,4.431,8.246-3.127,1.681Zm13.74,7.232a4.567,4.567,0,0,0,1.984-6.684c-1.443-2.686-3.933-3.382-6.589-1.955l-4.547,2.444,4.633,8.624Z" transform="translate(-601.075 -928.707)" fill="#fff"/>
        <path id="Tracé_1192" data-name="Tracé 1192" d="M835.849,982.6l2.926-1.674,1.567,2.74a13.147,13.147,0,0,1,.614,1.218l.061-.035c-.6-2.713.2-5.569,2.632-6.955a6.013,6.013,0,0,1,.815-.383l1.708,2.987a5.093,5.093,0,0,0-.925.4c-1.931,1.1-2.923,3.488-2.3,6.232a11.052,11.052,0,0,0,1.246,3.047l3.682,6.444-3.019,1.725Z" transform="translate(-600.931 -928.575)" fill="#fff"/>
        <path id="Tracé_1193" data-name="Tracé 1193" d="M853.878,971.532a9.507,9.507,0,1,1-3.448,13.173A9.463,9.463,0,0,1,853.878,971.532Zm8.307,13.666a6.5,6.5,0,1,0-8.722-2.337A6.267,6.267,0,0,0,862.185,985.2Z" transform="translate(-600.755 -928.399)" fill="#fff"/>
        <path id="Tracé_1194" data-name="Tracé 1194" d="M867.64,967.058l-1.988,1.284-1.517-2.348,2.077-1.344-2.842-4.4,2.83-1.829,2.842,4.4,3.674-2.376,1.518,2.35-3.672,2.374,4.379,6.774c1.967,3.041,4.357,2.051,5.471,1.33a4.191,4.191,0,0,0,.653-.507l1.676,2.59a9.721,9.721,0,0,1-.985.722c-1.958,1.266-6.232,3.174-9.522-1.915Z" transform="translate(-600.175 -928.145)" fill="#fff"/>
        <path id="Tracé_1195" data-name="Tracé 1195" d="M881.8,953.5c4.231-2.9,8.627-1.3,11.281,2.577.263.385.762,1.3.762,1.3l-10.919,7.474a5.93,5.93,0,0,0,8.53,1.417,8.648,8.648,0,0,0,3.244-4.784l2.621,1.291a10.8,10.8,0,0,1-4.342,6.1,9.239,9.239,0,0,1-13.3-2.415C876.425,961.7,877.544,956.412,881.8,953.5Zm7.723,3.665c-1.85-2.515-4.3-2.663-6.223-1.347a5.2,5.2,0,0,0-1.767,6.815Z" transform="translate(-600.175 -928.004)" fill="#fff"/>
        <path id="Tracé_1196" data-name="Tracé 1196" d="M910.5,961.454c2.541-1.873,3.79-4.53,1.6-7.5l-.787-1.068c-.341-.462-.653-.944-.653-.944l-.057.041a5.762,5.762,0,0,1-2.651,5.473c-4.07,3-8.929,1.546-12.035-2.67-3.086-4.186-3.044-9.028,1-12.007,3.523-2.594,6.187-1.217,6.187-1.217l.057-.042a4.8,4.8,0,0,1-.369-.441l-1-1.356,2.686-1.981,10.319,14c3.553,4.821,1.248,9.371-2.447,12.1a14.165,14.165,0,0,1-5.889,2.467l-.693-2.875A11.691,11.691,0,0,0,910.5,961.454Zm-3.62-14.706c-2.809-3.811-5.465-3.547-7.746-1.866-2.54,1.873-2.623,4.783-.431,7.758,2.234,3.031,5.382,3.919,8.01,1.982C908.735,953.133,909.688,950.559,906.881,946.748Z" transform="translate(-600.175 -927.47)" fill="#fff"/>
        <path id="Tracé_1197" data-name="Tracé 1197" d="M914.56,929.286c4.014-3.19,8.513-1.911,11.436,1.767.29.365.854,1.246.854,1.246l-10.36,8.234a5.931,5.931,0,0,0,8.613.8,8.654,8.654,0,0,0,2.894-5l2.707,1.1a10.8,10.8,0,0,1-3.9,6.394,9.242,9.242,0,0,1-13.438-1.459C909.778,937.852,910.517,932.5,914.56,929.286Zm7.965,3.106c-2.026-2.375-4.478-2.35-6.3-.9a5.2,5.2,0,0,0-1.277,6.925Z" transform="translate(-600.175 -927.47)" fill="#fff"/>
      </g>
    </g>
  </g>
</svg>
