<svg xmlns="http://www.w3.org/2000/svg" width="49.123" height="49.112" viewBox="0 0 49.123 49.112">
  <path id="Icon_awesome-instagram" data-name="Icon awesome-instagram" d="M24.562,14.2A12.592,12.592,0,1,0,37.154,26.794,12.572,12.572,0,0,0,24.562,14.2Zm0,20.778a8.186,8.186,0,1,1,8.186-8.186A8.2,8.2,0,0,1,24.562,34.98ZM40.606,13.687a2.937,2.937,0,1,1-2.937-2.937A2.93,2.93,0,0,1,40.606,13.687Zm8.34,2.981c-.186-3.934-1.085-7.419-3.967-10.29s-6.356-3.77-10.29-3.967c-4.055-.23-16.208-.23-20.263,0C10.5,2.6,7.017,3.5,4.134,6.366S.365,12.723.167,16.657c-.23,4.055-.23,16.208,0,20.263.186,3.934,1.085,7.419,3.967,10.29s6.356,3.77,10.29,3.967c4.055.23,16.208.23,20.263,0,3.934-.186,7.419-1.085,10.29-3.967s3.77-6.356,3.967-10.29c.23-4.055.23-16.2,0-20.252Zm-5.238,24.6a8.288,8.288,0,0,1-4.668,4.668c-3.233,1.282-10.9.986-14.477.986s-11.255.285-14.477-.986A8.288,8.288,0,0,1,5.417,41.27c-1.282-3.233-.986-10.9-.986-14.477s-.285-11.255.986-14.477a8.288,8.288,0,0,1,4.668-4.668c3.233-1.282,10.9-.986,14.477-.986s11.255-.285,14.477.986a8.288,8.288,0,0,1,4.668,4.668c1.282,3.233.986,10.9.986,14.477S44.989,38.049,43.707,41.27Z" transform="translate(0.005 -2.238)" fill="#00a5c4"/>
</svg>
