<svg xmlns="http://www.w3.org/2000/svg" width="41.942" height="41.941" viewBox="0 0 41.942 41.941">
  <g id="Groupe_485" data-name="Groupe 485" transform="translate(0 0)">
    <path id="Icon_awesome-linkedin-in" data-name="Icon awesome-linkedin-in" d="M9.388,41.941H.693v-28h8.7ZM5.036,10.12a5.06,5.06,0,1,1,5.036-5.084A5.078,5.078,0,0,1,5.036,10.12Zm36.9,31.821H33.256V28.31c0-3.249-.066-7.415-4.521-7.415-4.521,0-5.214,3.529-5.214,7.181V41.941H14.835v-28h8.34v3.82H23.3a9.137,9.137,0,0,1,8.227-4.522c8.8,0,10.418,5.8,10.418,13.322V41.941Z" transform="translate(0 -0.001)" fill="#00a5c4"/>
  </g>
</svg>
