<svg xmlns="http://www.w3.org/2000/svg" width="105.878" height="109.946" viewBox="0 0 105.878 109.946">
  <g id="Groupe_558" data-name="Groupe 558" transform="translate(-494.061 -5201.027)">
    <g id="Groupe_557" data-name="Groupe 557" transform="translate(1553.861 6963.096) rotate(180)">
      <path id="Tracé_245" data-name="Tracé 245" d="M-109.74,323.225c-.774-8.675-3.592-20.957-12.623-30.208-8.35-8.554-20.471-12.166-36.885-10.769-1.074.091-1.4-.023-3.43.131-21.142,1.333-37.284,5.654-47.511,39.737-10.073,22.292-5.23,45.673,12.333,59.567A48.431,48.431,0,0,0-167.694,391.9a54.2,54.2,0,0,0,31.112-9.945C-118.526,369.245-107.738,345.642-109.74,323.225Z" transform="translate(1169.303 1370.168)" fill="#e2097a"/>
    </g>
    <text id="_" data-name="+" transform="translate(547 5276)" fill="#fff" font-size="63" font-family="MuseoSans-900, MuseoSans-900 ☞" font-weight="900"><tspan x="-19.782" y="0">+</tspan></text>
  </g>
</svg>
