<svg xmlns="http://www.w3.org/2000/svg" width="81.094" height="84.21" viewBox="0 0 81.094 84.21">
  <g id="Groupe_1215" data-name="Groupe 1215" transform="translate(-494.061 -5201.027)">
    <g id="Groupe_557" data-name="Groupe 557" transform="translate(575.154 5285.237) rotate(180)">
      <path id="Tracé_245" data-name="Tracé 245" d="M80.912,31.609c-.593-6.645-2.751-16.051-9.668-23.137C64.848,1.921,55.564-.846,42.992.224c-.823.069-1.076-.018-2.627.1C24.172,1.345,11.808,4.655,3.975,30.76-3.74,47.834-.031,65.741,13.421,76.383a37.094,37.094,0,0,0,23.1,7.827,41.51,41.51,0,0,0,23.829-7.617C74.182,66.857,82.445,48.779,80.912,31.609Z" transform="translate(0 0)" fill="#fff"/>
    </g>
    <text id="_" data-name="+" transform="translate(534.289 5258.261)" fill="#00aec7" font-size="48" font-family="MuseoSans-900, MuseoSans-900 ☞" font-weight="900"><tspan x="-15.072" y="0">+</tspan></text>
  </g>
</svg>
