<svg xmlns="http://www.w3.org/2000/svg" width="391.533" height="43.32" viewBox="0 0 391.533 43.32">
  <path id="Tracé_205" data-name="Tracé 205" d="M610.251,434.179c-3.022-1.548-7.474-1.626-11.2-1.689q-68.128-1.133-136.293-1.039t-136.283,1.432q-38.274.75-76.522,1.889c-5.667.169-16.429.983-21.713,2.255-3.628.873-10.127,12.635-3.426,37.021,4.452,1.592,12.7.035,17.783,0q77.689-.541,155.385-.506,20.352.01,40.7.063,59.652.162,119.3.662,17.365.147,34.73.322c5.882.059,7.984-.287,16.707-1.79C614.459,472.02,614.79,450.4,610.251,434.179Z" transform="translate(-221.908 -431.444)" fill="#e2097a"/>
</svg>
