<svg xmlns="http://www.w3.org/2000/svg" width="270.397" height="65" viewBox="0 0 270.397 65">
  <path id="Tracé_1122" data-name="Tracé 1122" d="M497.106,435.564c-2.1-2.331-5.2-2.45-7.786-2.544q-47.358-1.707-94.741-1.564t-94.734,2.158q-26.605,1.129-53.193,2.845a28.715,28.715,0,0,0-11.527,3.113c-2.522,1.315-7.413,15.133-3.566,53.44,3.095,2.4,6.447,2.661,9.98,2.608q54-.815,108.012-.762,14.147.015,28.294.094,41.466.245,82.928,1,12.071.221,24.142.486c4.088.089,5.55-.433,11.614-2.7C500.03,492.563,503.167,463.562,497.106,435.564Z" transform="translate(-230.134 -431.444)" fill="#e2097a"/>
</svg>
