<svg id="Groupe_1240" data-name="Groupe 1240" xmlns="http://www.w3.org/2000/svg" width="93.559" height="94.637" viewBox="0 0 93.559 94.637">
  <path id="Tracé_1095" data-name="Tracé 1095" d="M1107.864,1144.7a3.031,3.031,0,0,0-3.8,1.668,2.954,2.954,0,0,0,1.667,3.8c16.416,4.328,29.055,18.358,30.8,35.368a41.062,41.062,0,0,1-23.849,41.479,41.543,41.543,0,0,1-45.522-7.62c-12.727-11.793-16.361-30.413-9.972-46.412a41.367,41.367,0,0,1,18.272-20.722,47.226,47.226,0,0,1,13.29-5.042,77.5,77.5,0,0,1,14.081-1.137c1.641-.039,1.887-2.775.345-3.2-8.791-2.449-19.082-.395-27.2,3.463a46.835,46.835,0,0,0-20.639,18.814c-9.488,16.66-8.442,38.181,3.588,53.3,11.659,14.653,31.221,21.457,49.323,16.271,19.211-5.5,33.222-22.326,34.222-42.45A47.158,47.158,0,0,0,1107.864,1144.7Z" transform="translate(-1048.964 -1141.818)" fill="#fff"/>
  <path id="Tracé_1096" data-name="Tracé 1096" d="M1218.1,1252.876l-18.661-10.3c-2.953-1.63-5.9-3.264-8.879-4.856-1.506-.806-3-1.632-4.519-2.419a16,16,0,0,0-5.064-2.09,1.4,1.4,0,0,0-1.118.342,1.5,1.5,0,0,0-1.995,1.257,99.458,99.458,0,0,0-.075,11.756c.057,4.054.172,8.108.266,12.162q.138,5.9.275,11.8l.138,5.9c.042,1.822-.4,4.13,1.026,5.489l.026.024a1.124,1.124,0,0,0,1.371.857c3.405-1,6.144-3.046,9.037-5.027q4.553-3.117,9.079-6.271l18.1-12.609a2.013,2.013,0,0,0,.92-2.12C1219.347,1255.82,1219.857,1253.845,1218.1,1252.876Z" transform="translate(-1149.849 -1210.697)" fill="#fff"/>
</svg>
