<svg xmlns="http://www.w3.org/2000/svg" width="321.465" height="32.242" viewBox="0 0 321.465 32.242">
  <path id="Tracé_243" data-name="Tracé 243" d="M537.937,433.488c-2.451-1.156-6.063-1.215-9.086-1.262q-55.265-.847-110.56-.776t-110.552,1.07q-31.048.56-62.074,1.411c-4.6.126-21.931-.612-23.835.928-1.005.814-3.47,7.627,0,28.087,3.611,1.19,13.745.357,17.868.331q63.021-.4,126.047-.378,16.509.008,33.018.047,48.389.121,96.774.494,14.087.11,28.173.241c4.771.044,6.477-.215,13.553-1.338,4.087-.583,3.9-9.18,3.9-9.18C541.694,443.041,542.174,443.8,537.937,433.488Z" transform="translate(-220.04 -431.444)" fill="#e2097a"/>
</svg>
