<svg xmlns="http://www.w3.org/2000/svg" width="93.559" height="94.637" viewBox="0 0 93.559 94.637">
  <g id="Groupe_1338" data-name="Groupe 1338" transform="translate(-345.951 -175.279)">
    <g id="Groupe_1259" data-name="Groupe 1259" transform="translate(345.951 175.279)">
      <path id="Tracé_1095" data-name="Tracé 1095" d="M1107.864,1144.7a3.031,3.031,0,0,0-3.8,1.668,2.954,2.954,0,0,0,1.667,3.8c16.416,4.328,29.055,18.358,30.8,35.368a41.062,41.062,0,0,1-23.849,41.479,41.543,41.543,0,0,1-45.522-7.62c-12.727-11.793-16.361-30.413-9.972-46.412a41.367,41.367,0,0,1,18.272-20.722,47.226,47.226,0,0,1,13.29-5.042,77.5,77.5,0,0,1,14.081-1.137c1.641-.039,1.887-2.775.345-3.2-8.791-2.449-19.082-.395-27.2,3.463a46.835,46.835,0,0,0-20.639,18.814c-9.488,16.66-8.442,38.181,3.588,53.3,11.659,14.653,31.221,21.457,49.323,16.271,19.211-5.5,33.222-22.326,34.222-42.45A47.158,47.158,0,0,0,1107.864,1144.7Z" transform="translate(-1048.964 -1141.818)" fill="#fff"/>
    </g>
    <g id="Groupe_1260" data-name="Groupe 1260" transform="matrix(0.914, -0.407, 0.407, 0.914, -1869.002, 424.348)">
      <path id="Tracé_1127" data-name="Tracé 1127" d="M2286.332,752.963l-.017-.005-7.411-2.189a.548.548,0,0,1-.371-.681l2.331-7.892a.548.548,0,0,1,1.015-.091l5.08,10.081a.548.548,0,0,1-.627.777Zm-6.593-3.089,5.671,1.675-3.888-7.715Z" transform="translate(-116.564 -25.507)" fill="#fff" stroke="#fff" stroke-width="2"/>
      <path id="Tracé_1128" data-name="Tracé 1128" d="M2161.129,764.181l-.018,0-32.428-9.576a.548.548,0,0,1-.37-.681l12.717-43.066a.554.554,0,0,1,.681-.37l25.018,7.388a.546.546,0,0,1,.334.279l5.081,10.081a.546.546,0,0,1,.037.4l-10.387,35.174A.548.548,0,0,1,2161.129,764.181Zm-31.61-10.477,31.377,9.266,10.17-34.44-4.876-9.676-24.264-7.165Z" transform="translate(-1.747 -1.552)" fill="#fff" stroke="#fff" stroke-width="2"/>
      <path id="Tracé_1129" data-name="Tracé 1129" d="M2198.158,714.885c-5.442-1.419-10.834-3.07-16.114-4.934a.548.548,0,1,1,.365-1.033,199.054,199.054,0,0,0,24.765,6.975.548.548,0,1,1-.228,1.072Q2202.542,716.028,2198.158,714.885Z" transform="translate(-42.553 -0.349)" fill="#fff" stroke="#fff" stroke-width="2"/>
      <path id="Tracé_1130" data-name="Tracé 1130" d="M2127.219,753.5a.551.551,0,0,1-.213-.11c-.452-.375-.524-.982-.216-1.8a209.258,209.258,0,0,0,6.151-20.5,193.387,193.387,0,0,1,6.846-22.314.548.548,0,1,1,1.018.4,192.677,192.677,0,0,0-6.8,22.188,210.133,210.133,0,0,1-6.185,20.61c-.167.443-.108.575-.107.576a.547.547,0,0,1-.49.949Z" transform="translate(-0.458)" fill="#fff" stroke="#fff" stroke-width="2"/>
      <path id="Tracé_1131" data-name="Tracé 1131" d="M2155.659,787.47c-2.253-.587-4.462-1.386-6.624-2.167-.829-.3-1.686-.609-2.523-.9-6.6-2.282-13.465-4.14-20.1-5.936a.548.548,0,0,1,.281-1.059h.005c6.656,1.8,13.538,3.664,20.174,5.958.845.292,1.706.6,2.538.9a51.084,51.084,0,0,0,9.544,2.768c3.679-11.306,7.152-22.84,10.326-34.3-1.155-.261-2.439-.479-3.988-.678-.833-.107-1.668-.2-2.375-.273-.069-.007-.183-.01-.318-.015-.906-.031-1.843-.062-2.041-.713a1.244,1.244,0,0,1,.281-.969c.028-.046.053-.087.067-.114.111-.244.212-.5.319-.769.045-.115.091-.229.137-.343.305-.751.609-1.516.9-2.273.588-1.517,1.158-3.061,1.7-4.589a.548.548,0,1,1,1.034.363c-.541,1.539-1.115,3.094-1.708,4.622-.3.762-.6,1.533-.909,2.29-.045.111-.089.222-.133.334-.107.271-.218.55-.343.825a2.052,2.052,0,0,1-.1.187c.284.035.659.048.838.054s.31.011.4.02c.714.076,1.556.168,2.4.276a41.024,41.024,0,0,1,4.659.83.549.549,0,0,1,.4.678c-3.261,11.8-6.839,23.691-10.635,35.332a.548.548,0,0,1-.592.373A29.416,29.416,0,0,1,2155.659,787.47Z" transform="translate(0 -25.382)" fill="#fff" stroke="#fff" stroke-width="2"/>
      <path id="Tracé_1132" data-name="Tracé 1132" d="M2291.234,749.746a.552.552,0,0,1-.239-.133,8.748,8.748,0,0,1-1.822-2.971c-1.14-2.607-2.276-5.26-3.379-7.887a.548.548,0,0,1,1.01-.424c1.1,2.622,2.236,5.271,3.373,7.872a7.92,7.92,0,0,0,1.573,2.615.548.548,0,0,1-.516.928Z" transform="translate(-122.098 -22.597)" fill="#fff" stroke="#fff" stroke-width="2"/>
      <path id="Tracé_1133" data-name="Tracé 1133" d="M2282.357,779.071l-.009,0-6.761-1.878a.548.548,0,0,1,.285-1.058l.008,0,6.762,1.878a.548.548,0,0,1-.285,1.058Z" transform="translate(-114.022 -51.732)" fill="#fff" stroke="#fff" stroke-width="2"/>
      <path id="Tracé_1134" data-name="Tracé 1134" d="M2274.157,748.6l-.04-.012a.548.548,0,0,1-.347-.677c.466-1.542.889-3.154,1.3-4.713s.837-3.19,1.309-4.752a.83.83,0,0,1,.628-.653.548.548,0,0,1,.415.99l-.047.156h0a.548.548,0,0,1,.371.681c-.858,2.91-1.848,5.819-2.942,8.646A.548.548,0,0,1,2274.157,748.6Z" transform="translate(-112.922 -22.437)" fill="#fff" stroke="#fff" stroke-width="2"/>
      <path id="Tracé_1135" data-name="Tracé 1135" d="M2275.874,751.155l-.041-.013a.549.549,0,0,1-.339-.7c1.03-2.984,2.042-6.025,3.008-9.039a.548.548,0,1,1,1.043.334c-.968,3.021-1.983,6.07-3.015,9.062A.548.548,0,0,1,2275.874,751.155Z" transform="translate(-114.235 -24.913)" fill="#fff" stroke="#fff" stroke-width="2"/>
      <path id="Tracé_1136" data-name="Tracé 1136" d="M2292.3,749.39a.545.545,0,0,1-.323-.234,60.686,60.686,0,0,1-5.124-10.978.548.548,0,0,1,1.023-.4,59.826,59.826,0,0,0,5.023,10.783.548.548,0,0,1-.6.826Z" transform="translate(-122.913 -22.166)" fill="#fff" stroke="#fff" stroke-width="2"/>
      <path id="Tracé_1137" data-name="Tracé 1137" d="M2275.422,779.168a.548.548,0,0,1,.09-1.076,4.635,4.635,0,0,1,1.734.275l.055.016a41.145,41.145,0,0,0,6.378,1.351.548.548,0,0,1-.141,1.087,42.2,42.2,0,0,1-6.549-1.387l-.056-.016a3.7,3.7,0,0,0-1.325-.234A.556.556,0,0,1,2275.422,779.168Z" transform="translate(-113.89 -53.236)" fill="#fff" stroke="#fff" stroke-width="2"/>
      <path id="Tracé_1138" data-name="Tracé 1138" d="M2281.165,754.375l-.009,0a.548.548,0,0,1-.382-.674c.642-2.314,1.33-4.657,2.047-6.962a.554.554,0,0,1,.686-.361.548.548,0,0,1,.361.686c-.713,2.3-1.4,4.627-2.037,6.93A.548.548,0,0,1,2281.165,754.375Z" transform="translate(-118.279 -28.984)" fill="#fff" stroke="#fff" stroke-width="2"/>
      <path id="Tracé_1139" data-name="Tracé 1139" d="M2280.612,766.872a1.36,1.36,0,0,0-.692-1.043.548.548,0,0,1,.22-.743l3.354-1.819a.548.548,0,0,1,.6.91c-.908.724-1.7,1.435-2.548,2.188l-.434.387A.548.548,0,0,1,2280.612,766.872Z" transform="translate(-117.59 -41.861)" fill="#fff" stroke="#fff" stroke-width="2"/>
      <path id="Tracé_1140" data-name="Tracé 1140" d="M2285.734,754.4a.539.539,0,0,1-.182-.086.548.548,0,0,1-.124-.765,4.032,4.032,0,0,1,1.685-1.532.548.548,0,0,1,.408,1.018,3.1,3.1,0,0,0-1.2,1.156A.548.548,0,0,1,2285.734,754.4Z" transform="translate(-121.772 -33.286)" fill="#fff" stroke="#fff" stroke-width="2"/>
      <path id="Tracé_1141" data-name="Tracé 1141" d="M2279.815,759.378a.548.548,0,0,1-.341-.8,10.287,10.287,0,0,1,1.039-1.54.548.548,0,0,1,.161-.749c.527-.349,1.071-.683,1.617-.993a1.045,1.045,0,0,1,.516-.161.548.548,0,0,1,.31,1,8.38,8.38,0,0,0-2.686,2.973A.548.548,0,0,1,2279.815,759.378Z" transform="translate(-117.247 -35.699)" fill="#fff" stroke="#fff" stroke-width="2"/>
      <path id="Tracé_1142" data-name="Tracé 1142" d="M2277.719,762.18a.549.549,0,0,1-.3-.854c.285-.389.585-.764.895-1.126a.549.549,0,0,1,.138-.674l2.876-2.374a.548.548,0,0,1,.72.825,28.746,28.746,0,0,0-3.744,4A.549.549,0,0,1,2277.719,762.18Z" transform="translate(-115.646 -37.142)" fill="#fff" stroke="#fff" stroke-width="2"/>
      <path id="Tracé_1143" data-name="Tracé 1143" d="M2279.751,765.371a.541.541,0,0,1-.2-.1.548.548,0,0,1-.1-.768l.069-.09a.548.548,0,0,1,.112-.645c.885-.838,1.818-1.641,2.782-2.394q.273-.221.551-.422a.548.548,0,0,1,.651.881q-.26.2-.518.4a17.143,17.143,0,0,0-2.779,2.941A.549.549,0,0,1,2279.751,765.371Z" transform="translate(-117.199 -40.066)" fill="#fff" stroke="#fff" stroke-width="2"/>
      <path id="Tracé_1144" data-name="Tracé 1144" d="M2279.851,767.776a.548.548,0,0,1-.193-.966l3.8-2.9a.548.548,0,0,1,.7.841c-.524.477-1.022.958-1.5,1.424s-.994.96-1.532,1.45a.548.548,0,0,1-.732.005l-.069.053A.548.548,0,0,1,2279.851,767.776Z" transform="translate(-117.276 -42.318)" fill="#fff" stroke="#fff" stroke-width="2"/>
      <path id="Tracé_1145" data-name="Tracé 1145" d="M2280.676,771.855a.548.548,0,0,1-.217-.948,20.606,20.606,0,0,1,3.132-2.2.548.548,0,1,1,.543.952,19.493,19.493,0,0,0-2.964,2.08A.547.547,0,0,1,2280.676,771.855Z" transform="translate(-117.906 -46.017)" fill="#fff" stroke="#fff" stroke-width="2"/>
      <path id="Tracé_1146" data-name="Tracé 1146" d="M2282.258,770.747a.542.542,0,0,1-.279-.176.548.548,0,0,1,.063-.772c1.206-1.023,2.462-2.015,3.734-2.95a.548.548,0,1,1,.649.884c-1.252.919-2.488,1.9-3.674,2.9A.548.548,0,0,1,2282.258,770.747Z" transform="translate(-119.115 -44.57)" fill="#fff" stroke="#fff" stroke-width="2"/>
      <path id="Tracé_1147" data-name="Tracé 1147" d="M2284.689,773.089a.548.548,0,0,1-.174-.98c1-.7,2.041-1.373,3.083-2.012a.548.548,0,0,1,.573.934c-1.024.629-2.044,1.294-3.032,1.978A.545.545,0,0,1,2284.689,773.089Z" transform="translate(-120.973 -47.071)" fill="#fff" stroke="#fff" stroke-width="2"/>
      <path id="Tracé_1148" data-name="Tracé 1148" d="M2286.268,772.485a.548.548,0,0,1-.191-.968c1.048-.788,2.118-1.578,3.181-2.348a.548.548,0,1,1,.643.888c-1.058.766-2.122,1.552-3.165,2.336A.546.546,0,0,1,2286.268,772.485Z" transform="translate(-122.18 -46.344)" fill="#fff" stroke="#fff" stroke-width="2"/>
      <path id="Tracé_1149" data-name="Tracé 1149" d="M2287.109,775.012a.548.548,0,0,1-.114-1.017c1.081-.559,2.176-1.114,3.257-1.65a28.57,28.57,0,0,0,1.217.743.534.534,0,0,0,.243.708.548.548,0,0,1-.15.76,3.51,3.51,0,0,1-1.02.487l-.06.018a1.3,1.3,0,0,1-1.061.012.685.685,0,0,1-.26-.293l-.722.321a.547.547,0,0,1-.69-.213.426.426,0,0,1-.021-.037l-.229.118A.543.543,0,0,1,2287.109,775.012Z" transform="translate(-122.822 -48.807)" fill="#fff" stroke="#fff" stroke-width="2"/>
      <path id="Tracé_1150" data-name="Tracé 1150" d="M2298.228,781.917a.548.548,0,0,1-.011-1.058,9.455,9.455,0,0,1,1.774-.321.548.548,0,0,1,.091,1.092,8.358,8.358,0,0,0-1.568.283A.544.544,0,0,1,2298.228,781.917Z" transform="translate(-131.321 -55.112)" fill="#fff" stroke="#fff" stroke-width="2"/>
      <path id="Tracé_1151" data-name="Tracé 1151" d="M2206.382,798.289l-.028-.008c-8.616-2.735-15.512-4.806-21.7-6.519a.548.548,0,0,1,.251-1.066c7.481,1.467,14.76,4.049,21.8,6.546a.548.548,0,0,1-.321,1.047Z" transform="translate(-44.518 -62.869)" fill="#fff" stroke="#fff" stroke-width="2"/>
      <path id="Tracé_1152" data-name="Tracé 1152" d="M2192.023,818.706q-2.434-.634-4.831-1.365c-1.846-.563-3.7-1.176-5.517-1.824-.481-.172-.986-.331-1.52-.5a20.716,20.716,0,0,1-3.4-1.289.548.548,0,0,1,.422-1.007c5.521,1.763,11.333,3.4,16.953,4.979q1.856.522,3.691,1.041a.547.547,0,0,1,.34.28l.509.105a.548.548,0,0,1-.219,1.074C2196.307,819.762,2194.157,819.262,2192.023,818.706Z" transform="translate(-38.569 -79.692)" fill="#fff" stroke="#fff" stroke-width="2"/>
      <path id="Tracé_1153" data-name="Tracé 1153" d="M2189.2,842.208a39.681,39.681,0,0,1-4.5-1.5,117.146,117.146,0,0,0-13.922-4.534h0a.548.548,0,0,1,.271-1.062c3.756.943,7.542,2,11.249,3.129,1.612.493,3.232,1.062,4.8,1.613,1.922.676,3.909,1.374,5.88,1.93a.548.548,0,0,1-.2,1.073A22.044,22.044,0,0,1,2189.2,842.208Z" transform="translate(-33.907 -96.815)" fill="#fff" stroke="#fff" stroke-width="2"/>
    </g>
  </g>
</svg>
