<svg xmlns="http://www.w3.org/2000/svg" width="22.097" height="14.319" viewBox="0 0 22.097 14.319">
  <g id="Groupe_1250" data-name="Groupe 1250" transform="translate(-31.563 4816.529)">
    <path id="Tracé_246" data-name="Tracé 246" d="M214.171,414.763a5.04,5.04,0,0,1-2.4,4.2,4.771,4.771,0,0,1-3.7.538,4.177,4.177,0,0,1-2.563-1.719,4.713,4.713,0,0,1-1.336-4.632,5.069,5.069,0,0,1,4.776-3.685,5.151,5.151,0,0,1,.8.055,28.747,28.747,0,0,1-.512-3.038.822.822,0,0,1,1.362-.793A10.2,10.2,0,0,1,212.965,409a5.274,5.274,0,0,1,1.117,2.657A7.339,7.339,0,0,1,214.171,414.763Z" transform="translate(-172.461 -5221.987)" fill="#e2097a"/>
    <path id="Tracé_247" data-name="Tracé 247" d="M388.971,412.989a5.04,5.04,0,0,1-2.4,4.2,4.772,4.772,0,0,1-3.7.538,4.177,4.177,0,0,1-2.563-1.719,4.713,4.713,0,0,1-1.336-4.632,5.069,5.069,0,0,1,4.776-3.685,5.154,5.154,0,0,1,.8.055,28.75,28.75,0,0,1-.512-3.038.822.822,0,0,1,1.362-.793,10.2,10.2,0,0,1,2.358,3.314,5.273,5.273,0,0,1,1.117,2.657A7.34,7.34,0,0,1,388.971,412.989Z" transform="translate(-335.439 -5220.094)" fill="#e2097a"/>
  </g>
</svg>
