<svg xmlns="http://www.w3.org/2000/svg" width="22.097" height="14.32" viewBox="0 0 22.097 14.32">
  <g id="Groupe_1249" data-name="Groupe 1249" transform="translate(365.383 5117.184)">
    <path id="Tracé_246" data-name="Tracé 246" d="M204.154,410.353a5.04,5.04,0,0,1,2.4-4.2,4.771,4.771,0,0,1,3.7-.538,4.177,4.177,0,0,1,2.563,1.719,4.713,4.713,0,0,1,1.336,4.632,5.069,5.069,0,0,1-4.776,3.685,5.151,5.151,0,0,1-.8-.055,28.746,28.746,0,0,1,.512,3.038.822.822,0,0,1-1.362.793,10.2,10.2,0,0,1-2.358-3.314,5.274,5.274,0,0,1-1.117-2.657A7.339,7.339,0,0,1,204.154,410.353Z" transform="translate(-557.585 -5522.521)" fill="#e2097a"/>
    <path id="Tracé_247" data-name="Tracé 247" d="M378.954,408.58a5.04,5.04,0,0,1,2.4-4.2,4.772,4.772,0,0,1,3.7-.538,4.177,4.177,0,0,1,2.563,1.719,4.713,4.713,0,0,1,1.336,4.632,5.069,5.069,0,0,1-4.776,3.685,5.155,5.155,0,0,1-.8-.055,28.763,28.763,0,0,1,.512,3.038.822.822,0,0,1-1.362.793,10.2,10.2,0,0,1-2.358-3.314,5.273,5.273,0,0,1-1.117-2.657A7.34,7.34,0,0,1,378.954,408.58Z" transform="translate(-744.207 -5520.868)" fill="#e2097a"/>
  </g>
</svg>
