<svg xmlns="http://www.w3.org/2000/svg" width="553.726" height="72" viewBox="0 0 553.726 72">
  <path id="Tracé_1094" data-name="Tracé 1094" d="M767.621,436.008c-4.223-2.582-10.444-2.714-15.65-2.818q-95.195-1.891-190.441-1.733T371.1,433.847Q317.623,435.1,264.179,437c-7.919.281-37.776-1.368-41.055,2.072-1.731,1.817-5.976,17.031,0,62.721,6.22,2.657,23.676.8,30.777.739q108.554-.9,217.117-.844,28.438.017,56.874.1,83.351.271,166.7,1.1,24.264.245,48.527.538c8.218.1,11.156-.479,23.345-2.987,7.04-1.3,6.718-20.5,6.718-20.5C774.092,457.342,774.918,459.046,767.621,436.008Z" transform="translate(-220.04 -431.444)" fill="#e2097a"/>
</svg>
