<svg xmlns="http://www.w3.org/2000/svg" width="714.134" height="649.48" viewBox="0 0 714.134 649.48">
  <path id="Tracé_207" data-name="Tracé 207" d="M427.358,115.437c79.234,39.159,149.787,101.71,199.5,174.635,38.906,57.078,65.2,125.319,53.24,195.114-8.163,47.656-34.542,91.062-73.2,117.565a145.084,145.084,0,0,1-26.922,14.463c-1.044.435-2.1.848-3.148,1.259-.629.227-2.369.873-2.584.944-2.348.779-4.7,1.541-7.072,2.228q-4.267,1.233-8.6,2.218c-1.355.307-7.111,1.363-6.534,1.308-21.81,3.3-41.043,1.77-61.7-5.349-65.393-22.534-103.628-89.095-124.682-151.3-4.153-12.272-26.1-7.773-30.252,2.342-13.531,32.946-31.043,64.346-55.5,90.477a184.1,184.1,0,0,1-31.167,26.669,124.949,124.949,0,0,1-15.777,9.226q-3.695,1.859-7.481,3.53c-1.494.66-3,1.281-4.509,1.907-.8.321-1.6.632-2.4.942l-1.134.4c-22.422,7.679-41.2,9.451-64.53,5.375-19.924-3.481-40.858-12.974-58.4-26.366-39.954-30.507-61.738-80.572-63.087-130.388-1.954-72.235,28.5-132.6,72.931-187.685C185.246,164.64,344.77,99.387,457.011,75.1,558.541,53.137,537.636-9.449,475.365,1.212c-103.6,17.739-269.7,92.877-381.7,215.921C40.718,275.305,3.56,359.685.195,439.859c-2.4,57.072,17.3,113.62,60.081,152.4C100.1,628.355,155.871,641.8,208,629.692c63.424-14.732,109.537-63.379,139.8-119.016,22.546,51.484,56.773,98.72,108.531,123.415,47.241,22.54,103.4,19.624,149.576-4.208,47.226-24.375,83.015-68.1,98.657-118.781,21.41-69.378,4.959-140.986-29.81-203.118-82.1-150.743-261.713-199.629-247.387-192.549" transform="translate(0 0)" fill="#e2097a"/>
</svg>
