<svg xmlns="http://www.w3.org/2000/svg" width="179.643" height="30.336" viewBox="0 0 179.643 30.336">
  <path id="Tracé_1200" data-name="Tracé 1200" d="M398.5,433.367c-1.4-1.088-3.453-1.143-5.175-1.187q-31.475-.8-62.968-.73t-62.964,1.007c-11.788.351-23.351-.533-35.131,0-2.618.119-7.813-.894-10.254,0-1.676.614-2.375,14.3,0,27.722a13.087,13.087,0,0,0,6.633,1.217q35.893-.38,71.789-.355,9.4.007,18.805.044,27.56.114,55.117.465,8.023.1,16.045.227c2.717.042,3.689-.2,7.719-1.259C400.443,459.969,400.962,446.55,398.5,433.367Z" transform="translate(-220.477 -431.444)" fill="#e2097a"/>
</svg>
