<svg xmlns="http://www.w3.org/2000/svg" width="100.782" height="104.655" viewBox="0 0 100.782 104.655">
  <g id="Groupe_1630" data-name="Groupe 1630" transform="translate(-1606.109 -4587.062)">
    <g id="Groupe_564" data-name="Groupe 564" transform="translate(1606.109 4587.062)">
      <g id="Groupe_557" data-name="Groupe 557" transform="translate(0 0)">
        <path id="Tracé_245" data-name="Tracé 245" d="M100.556,65.371c-.737,8.258-3.419,19.949-12.016,28.755-7.948,8.142-19.486,11.58-35.11,10.251-1.022-.086-1.337.022-3.265-.124C30.04,102.984,14.675,98.87,4.94,66.428-4.648,45.208-.038,22.953,16.679,9.727A46.1,46.1,0,0,1,45.391,0,51.589,51.589,0,0,1,75.006,9.466C92.193,21.566,102.462,44.033,100.556,65.371Z" transform="translate(0 0)" fill="#00aec7"/>
      </g>
    </g>
    <g id="Groupe_584" data-name="Groupe 584" transform="translate(1311.393 4376.359)">
      <g id="Groupe_580" data-name="Groupe 580" transform="translate(317.987 235.899)">
        <g id="Groupe_578" data-name="Groupe 578" transform="translate(15.95)">
          <path id="Tracé_255" data-name="Tracé 255" d="M358.2,261.56l-.05,0a1.086,1.086,0,0,1-.836-.455,16.734,16.734,0,0,0-4.3-4.189,16.979,16.979,0,0,0-21.462,2.1,1.086,1.086,0,0,1-.769.318h0a1.076,1.076,0,0,1-.766-.318l-5.3-5.294a1.087,1.087,0,0,1,0-1.535l11.794-11.794a15.331,15.331,0,0,1,22.509,20.785A1.085,1.085,0,0,1,358.2,261.56Zm-14.648-9.69A19.037,19.037,0,0,1,358.2,258.7a13.233,13.233,0,0,0-1.537-16.768,13.153,13.153,0,0,0-18.613,0l-11.026,11.026,3.779,3.781A18.967,18.967,0,0,1,343.548,251.87Z" transform="translate(-324.398 -235.899)" fill="#fff" stroke="#fff" stroke-width="0.5"/>
        </g>
        <g id="Groupe_579" data-name="Groupe 579" transform="translate(0 15.971)">
          <path id="Tracé_256" data-name="Tracé 256" d="M333.319,280.608a15.342,15.342,0,0,1-10.847-26.189l11.782-11.782a1.086,1.086,0,0,1,.769-.318h0a1.085,1.085,0,0,1,.766.318l5.294,5.294a1.087,1.087,0,0,1,0,1.537,16.94,16.94,0,0,0,2.1,25.763,1.085,1.085,0,0,1,.075,1.707A15.284,15.284,0,0,1,333.319,280.608Zm1.7-35.669-11.016,11.016a13.166,13.166,0,0,0,16.77,20.161,19.12,19.12,0,0,1-1.975-27.4Z" transform="translate(-317.987 -242.319)" fill="#fff" stroke="#fff" stroke-width="0.5"/>
        </g>
      </g>
      <g id="Groupe_581" data-name="Groupe 581" transform="translate(333.938 251.87)">
        <path id="Tracé_257" data-name="Tracé 257" d="M328.554,272.612c-.035,0-.07,0-.1,0a1.1,1.1,0,0,1-.794-.473,19.148,19.148,0,0,1,26.564-26.572,1.088,1.088,0,0,1,.164,1.669l-25.062,25.062A1.1,1.1,0,0,1,328.554,272.612Zm14.994-28.124a16.97,16.97,0,0,0-14.792,25.3l23.124-23.124A16.97,16.97,0,0,0,343.547,244.488Z" transform="translate(-324.399 -242.319)" fill="#fff" stroke="#fff" stroke-width="0.5"/>
      </g>
      <g id="Groupe_582" data-name="Groupe 582" transform="translate(341.466 259.388)">
        <path id="Tracé_258" data-name="Tracé 258" d="M339.045,276.112a19.077,19.077,0,0,1-10.672-3.256c-.184-.119-.356-.244-.532-.381a1.086,1.086,0,0,1-.015-1.7,10.037,10.037,0,0,0,.764-.7l23.564-23.576a9.152,9.152,0,0,0,.7-.764,1.089,1.089,0,0,1,.843-.4h.01a1.1,1.1,0,0,1,.843.415c.137.174.261.348.386.535a19.144,19.144,0,0,1-15.887,29.821Zm-8.789-4.627a16.971,16.971,0,0,0,23.3-23.313Z" transform="translate(-327.425 -245.341)" fill="#fff" stroke="#fff" stroke-width="0.5"/>
      </g>
      <g id="Groupe_583" data-name="Groupe 583" transform="translate(337.008 254.931)">
        <path id="Tracé_259" data-name="Tracé 259" d="M331.176,275.372a1.091,1.091,0,0,1-.629-.2,18.843,18.843,0,0,1-4.729-4.869,1.082,1.082,0,0,1,.134-1.371l25.062-25.062a1.085,1.085,0,0,1,1.376-.132,18.934,18.934,0,0,1,4.856,4.729,1.087,1.087,0,0,1-.045,1.314,12.3,12.3,0,0,1-.846.928L332.79,274.283a12.341,12.341,0,0,1-.928.843A1.091,1.091,0,0,1,331.176,275.372Zm-3.042-5.555a16.756,16.756,0,0,0,2.985,3.067l.137-.137,23.564-23.576c.047-.045.095-.092.139-.139a16.627,16.627,0,0,0-3.06-2.98Z" transform="translate(-325.633 -243.549)" fill="#fff" stroke="#fff" stroke-width="0.5"/>
      </g>
    </g>
  </g>
</svg>
