<svg xmlns="http://www.w3.org/2000/svg" width="628.481" height="72" viewBox="0 0 628.481 72">
  <path id="Tracé_243" data-name="Tracé 243" d="M841.546,436.008c-4.793-2.582-11.854-2.714-17.763-2.818q-108.047-1.891-216.151-1.733-108.088.164-216.135,2.39Q330.8,435.1,270.138,437c-8.988.281-42.876-1.368-46.6,2.072-1.965,1.817-6.783,17.031,0,62.721,7.06,2.657,26.872.8,34.932.739q123.209-.9,246.429-.844,32.277.017,64.552.1,94.6.271,189.2,1.1,27.54.245,55.079.538c9.328.1,12.662-.479,26.5-2.987,7.99-1.3,7.625-20.5,7.625-20.5C848.891,457.342,849.829,459.046,841.546,436.008Z" transform="translate(-220.04 -431.444)" fill="#00aec7"/>
</svg>
