<svg xmlns="http://www.w3.org/2000/svg" width="340.302" height="32.619" viewBox="0 0 340.302 32.619">
  <path id="Tracé_271" data-name="Tracé 271" d="M560.1,433.512c-2.641-1.17-6.531-1.229-9.787-1.276q-59.53-.857-119.093-.785T312.13,432.533q-33.444.567-66.865,1.428a82.036,82.036,0,0,0-14.491,1.562c-3.171.66-9.971.4-4.482,26.818,3.89,1.2,8.1,1.336,12.545,1.309q67.885-.409,135.776-.382,17.784.008,35.567.047,52.124.123,104.244.5,15.174.111,30.347.244c5.14.045,6.977-.217,14.6-1.353C563.772,462.115,568,446.912,560.1,433.512Z" transform="translate(-224.221 -431.444)" fill="#e2097a"/>
</svg>
