<svg xmlns="http://www.w3.org/2000/svg" width="534.902" height="80.74" viewBox="0 0 534.902 80.74">
  <path id="Tracé_243" data-name="Tracé 243" d="M743.2,436.549c-4.035-2.889-9.981-3.036-14.957-3.152q-90.976-2.115-182-1.938t-181.988,2.674q-51.11,1.4-102.185,3.525c-7.568.315-30.065.045-37.121,2.419-4.845,1.63-11.807,25.821,0,66.332,5.945,2.972,20.512,4.623,27.3,4.557q103.743-1.01,207.5-.944,27.178.019,54.354.117,79.657.3,159.308,1.235,23.189.274,46.377.6c7.854.11,15.78.969,27.429-1.837C753.934,508.683,758.2,453.638,743.2,436.549Z" transform="translate(-218.448 -431.444)" fill="#e2097a"/>
</svg>
