<svg xmlns="http://www.w3.org/2000/svg" width="45.866" height="47.628" viewBox="0 0 45.866 47.628">
  <g id="Groupe_1565" data-name="Groupe 1565" transform="translate(-1271.89 -1464.765)">
    <path id="Tracé_245" data-name="Tracé 245" d="M-169.617,299.833c-.335-3.758-1.556-9.079-5.468-13.086-3.617-3.706-8.868-5.27-15.979-4.665-.465.039-.608-.01-1.486.057-9.159.577-16.151,2.449-20.582,17.214-4.363,9.657-2.266,19.785,5.343,25.8a20.98,20.98,0,0,0,13.067,4.427,23.478,23.478,0,0,0,13.478-4.308A28.837,28.837,0,0,0-169.617,299.833Z" transform="translate(1487.27 1182.81)" fill="#e2097a"/>
    <path id="Icon_ionic-ios-arrow-back" data-name="Icon ionic-ios-arrow-back" d="M3.988,11.566l8.755-8.748A1.654,1.654,0,0,0,10.4.483L.482,10.4a1.65,1.65,0,0,0-.048,2.28l9.961,9.981a1.654,1.654,0,1,0,2.342-2.335Z" transform="translate(1301.437 1500.148) rotate(180)" fill="#fff" stroke="#fff" stroke-width="1"/>
  </g>
</svg>
