<svg id="Groupe_1087" data-name="Groupe 1087" xmlns="http://www.w3.org/2000/svg" width="45.498" height="47.246" viewBox="0 0 45.498 47.246">
  <path id="Tracé_245" data-name="Tracé 245" d="M-169.984,299.689c-.333-3.728-1.544-9.006-5.424-12.981-3.588-3.676-8.8-5.228-15.85-4.628-.462.039-.6-.01-1.474.056-9.085.573-16.022,2.43-20.416,17.076-4.328,9.579-2.247,19.627,5.3,25.6a20.811,20.811,0,0,0,12.962,4.391,23.29,23.29,0,0,0,13.369-4.273A28.605,28.605,0,0,0-169.984,299.689Z" transform="translate(215.38 -281.955)" fill="#00aec7"/>
  <path id="Icon_ionic-ios-arrow-back" data-name="Icon ionic-ios-arrow-back" d="M3.956,11.474,12.641,2.8A1.64,1.64,0,1,0,10.317.479L.478,10.312A1.637,1.637,0,0,0,.43,12.574l9.881,9.9a1.64,1.64,0,1,0,2.323-2.316Z" transform="translate(29.31 35.1) rotate(180)" fill="#fff" stroke="#fff" stroke-width="1"/>
</svg>
