<svg xmlns="http://www.w3.org/2000/svg" width="45.866" height="47.628" viewBox="0 0 45.866 47.628">
  <g id="Groupe_1566" data-name="Groupe 1566" transform="translate(-602.732 -1464.764)">
    <path id="Tracé_245" data-name="Tracé 245" d="M45.763,17.878C45.427,14.12,44.207,8.8,40.294,4.792,36.677,1.086,31.427-.478,24.316.127c-.465.039-.608-.01-1.486.057C13.671.761,6.679,2.633,2.248,17.4-2.115,27.054-.018,37.183,7.591,43.2a20.98,20.98,0,0,0,13.067,4.427A23.478,23.478,0,0,0,34.135,43.32,28.837,28.837,0,0,0,45.763,17.878Z" transform="translate(648.598 1512.393) rotate(180)" fill="#e2097a"/>
    <path id="Icon_ionic-ios-arrow-back" data-name="Icon ionic-ios-arrow-back" d="M3.988,11.566l8.755-8.748A1.654,1.654,0,0,0,10.4.483L.482,10.4a1.65,1.65,0,0,0-.048,2.28l9.961,9.981a1.654,1.654,0,1,0,2.342-2.335Z" transform="translate(619.05 1477.009)" fill="#fff" stroke="#fff" stroke-width="1"/>
  </g>
</svg>
