<svg xmlns="http://www.w3.org/2000/svg" width="43.611" height="35.443" viewBox="0 0 43.611 35.443">
  <path id="Tracé_1221" data-name="Tracé 1221" d="M159.693,128.884a17.878,17.878,0,0,1-5.138,1.408,9,9,0,0,0,3.936-4.95,17.984,17.984,0,0,1-5.683,2.17,8.957,8.957,0,0,0-15.248,8.162,25.4,25.4,0,0,1-18.441-9.351,8.961,8.961,0,0,0,2.766,11.948,8.9,8.9,0,0,1-4.053-1.121v.114a8.953,8.953,0,0,0,7.177,8.771,8.939,8.939,0,0,1-4.04.156,8.96,8.96,0,0,0,8.361,6.213,18.114,18.114,0,0,1-13.248,3.705,25.32,25.32,0,0,0,13.713,4.02c16.458,0,25.46-13.636,25.46-25.459,0-.388-.01-.772-.026-1.157a18.163,18.163,0,0,0,4.463-4.63Zm0,0" transform="translate(-116.082 -124.688)" fill="#fff"/>
</svg>
