<svg xmlns="http://www.w3.org/2000/svg" width="37.988" height="37.988" viewBox="0 0 37.988 37.988">
  <path id="Icon_ionic-logo-whatsapp" data-name="Icon ionic-logo-whatsapp" d="M21.589,2.25A18.577,18.577,0,0,0,2.94,20.755,18.314,18.314,0,0,0,5.616,30.31L2.25,40.238l10.325-3.28a18.681,18.681,0,0,0,27.663-16.2A18.577,18.577,0,0,0,21.589,2.25Zm9.273,25.533a4.817,4.817,0,0,1-3.3,2.126c-.875.046-.9.678-5.668-1.394s-7.636-7.11-7.862-7.434a9.146,9.146,0,0,1-1.759-4.957,5.284,5.284,0,0,1,1.815-3.877,1.826,1.826,0,0,1,1.292-.544c.375-.006.619-.011.9,0s.695-.058,1.056.9,1.225,3.32,1.335,3.56a.864.864,0,0,1,.009.829,3.239,3.239,0,0,1-.505.77c-.249.267-.524.6-.746.8-.248.226-.506.472-.246.956a14.271,14.271,0,0,0,2.525,3.369,13.012,13.012,0,0,0,3.739,2.486c.468.255.747.226,1.037-.079s1.241-1.335,1.577-1.8.65-.371,1.08-.2,2.727,1.4,3.194,1.658.78.384.891.585A3.916,3.916,0,0,1,30.862,27.783Z" transform="translate(-2.25 -2.25)" fill="#fff"/>
</svg>
