<svg xmlns="http://www.w3.org/2000/svg" width="53.707" height="21.824" viewBox="0 0 53.707 21.824">
  <path id="Tracé_1120" data-name="Tracé 1120" d="M-222.725,379.935c-.147-.646-.343-.767-1.017-.859a10.012,10.012,0,0,1-1.625-.188.355.355,0,0,0-.385-.177,1.829,1.829,0,0,1-.722-.1q-.879-.259-1.765-.5c-1.269-.34-2.542-.666-3.809-1.013-1.535-.42-3.069-.844-4.6-1.289-.995-.29-1.975-.629-2.968-.93-1.379-.418-2.695-1-4.042-1.5a20.678,20.678,0,0,1-3.311-1.583c-.364-.214-.75-.39-1.1-.571a.982.982,0,0,0-.359.588,8.811,8.811,0,0,0,0,4.01,1.166,1.166,0,0,0,.6.767,27.439,27.439,0,0,0,2.763,1.441c1.316.582,2.658,1.1,4.007,1.6a1.69,1.69,0,0,1,.891.523c-.947.02-1.79.159-2.637.235-1.431.127-2.858.316-4.3.341-1,.018-2,.083-3,.138-1.833.1-3.665.268-5.5.292-.852.011-1.708.05-2.558.073-2.077.057-4.155.046-6.232.083-2.139.039-4.28.016-6.42.015-1.44,0-2.879,0-4.318-.025-.408-.008-.63.041-.759.495a7.79,7.79,0,0,0,.009,4.355.7.7,0,0,0,.035.085.478.478,0,0,0,.414.288,10.843,10.843,0,0,0,1.824,0c1.162.013,2.324.033,3.486.04.52,0,1.04-.032,1.56-.028,1.557.013,3.118.111,4.67.036,1.613-.078,3.225-.048,4.837-.091,1.986-.053,3.971-.082,5.954-.212.458-.03.917-.037,1.375-.065,1.218-.074,2.434-.188,3.653-.222,1.652-.046,3.3-.171,4.939-.331,1.765-.172,3.527-.377,5.289-.582.607-.071,1.207-.191,1.813-.273.123-.017.3-.094.37.093-.034.158-.148.208-.253.268a24.621,24.621,0,0,0-3.651,2.62,1.425,1.425,0,0,0-.512.831,8.718,8.718,0,0,0,0,3.654,2.944,2.944,0,0,0,.218.6.336.336,0,0,0,.472.13,2.383,2.383,0,0,0,.283-.234,18.236,18.236,0,0,1,2.791-2.072q1.728-1.113,3.508-2.15a31.488,31.488,0,0,1,5.983-2.529c.9-.3,1.8-.59,2.7-.9a7.376,7.376,0,0,0,.752-.339,1.154,1.154,0,0,0,.655-.835A8.9,8.9,0,0,0-222.725,379.935Z" transform="translate(276.198 -371.231)" fill="#e2097a"/>
</svg>
