<svg xmlns="http://www.w3.org/2000/svg" width="35.207" height="14.306" viewBox="0 0 35.207 14.306">
  <path id="Tracé_1201" data-name="Tracé 1201" d="M-276.046,376.937c.1-.423.225-.5.667-.563a6.563,6.563,0,0,0,1.065-.123.233.233,0,0,1,.253-.116,1.2,1.2,0,0,0,.474-.063q.576-.17,1.157-.325c.832-.223,1.666-.436,2.5-.664,1.006-.275,2.012-.553,3.014-.845.652-.19,1.295-.412,1.945-.609.9-.274,1.766-.658,2.65-.986a13.554,13.554,0,0,0,2.17-1.038c.238-.141.492-.256.723-.374a.644.644,0,0,1,.235.385,5.776,5.776,0,0,1,0,2.628.764.764,0,0,1-.4.5,17.989,17.989,0,0,1-1.811.944c-.863.382-1.742.721-2.626,1.05a1.107,1.107,0,0,0-.584.343c.621.013,1.173.1,1.729.154.938.083,1.873.207,2.818.224.657.012,1.313.054,1.969.09,1.2.067,2.4.176,3.6.192.559.007,1.12.033,1.677.048,1.362.037,2.724.03,4.085.055,1.4.026,2.806.01,4.209.01.944,0,1.887,0,2.831-.017.267-.005.413.027.5.324a5.106,5.106,0,0,1-.006,2.855.456.456,0,0,1-.023.056.313.313,0,0,1-.271.189,7.111,7.111,0,0,1-1.2,0c-.762.009-1.524.022-2.286.026-.341,0-.682-.021-1.023-.018-1.021.008-2.044.073-3.061.023-1.057-.051-2.114-.031-3.171-.06-1.3-.035-2.6-.054-3.9-.139-.3-.02-.6-.024-.9-.043-.8-.048-1.6-.123-2.394-.146-1.083-.03-2.161-.112-3.238-.217-1.157-.113-2.312-.247-3.467-.381-.4-.046-.791-.125-1.188-.179-.081-.011-.2-.062-.242.061.022.1.1.137.166.176A16.136,16.136,0,0,1-265,382.084a.934.934,0,0,1,.335.545,5.715,5.715,0,0,1,0,2.4,1.93,1.93,0,0,1-.143.4.22.22,0,0,1-.309.085,1.561,1.561,0,0,1-.186-.154,11.955,11.955,0,0,0-1.83-1.359q-1.133-.729-2.3-1.409a20.641,20.641,0,0,0-3.922-1.658c-.59-.195-1.18-.387-1.768-.589a4.836,4.836,0,0,1-.493-.223.757.757,0,0,1-.43-.548A5.834,5.834,0,0,1-276.046,376.937Z" transform="translate(276.198 -371.231)" fill="#e2097a"/>
</svg>
