<svg xmlns="http://www.w3.org/2000/svg" width="560.581" height="66.532" viewBox="0 0 560.581 66.532">
  <path id="Tracé_243" data-name="Tracé 243" d="M731.459,436.068c-3.126-2.34-7.732-2.459-11.586-2.554-46.982-1.142-174.706-2.158-221.707-2.058s-94,.821-140.974,2.166q-39.591,1.134-79.156,2.856c-5.862.255-97.9.249-100.325,3.366-1.282,1.646-4.424,15.435,0,56.844,4.605,2.408,17.528.723,22.785.67,53.576-.546,177.086-2.291,230.665-2.253q21.053.015,42.1.095c41.137.164,163,.981,204.128,1.488q17.963.222,35.925.488c6.084.089,8.259-.435,17.282-2.707,5.212-1.18,4.974-18.579,4.974-18.579C736.25,455.4,736.862,456.948,731.459,436.068Z" transform="translate(-175.427 -431.449)" fill="#e2097a"/>
</svg>
