<svg xmlns="http://www.w3.org/2000/svg" width="569.801" height="57" viewBox="0 0 569.801 57">
  <path id="Tracé_1202" data-name="Tracé 1202" d="M783.517,435.057c-4.345-2.044-10.747-2.148-16.1-2.231q-97.958-1.5-195.969-1.372t-195.955,1.892q-55.032.99-110.028,2.495c-8.148.223-38.873-1.083-42.247,1.641-1.782,1.438-6.15,13.483,0,49.654,6.4,2.1,24.363.632,31.671.585q111.705-.715,223.42-.668,29.263.013,58.525.083,85.771.215,171.534.874,24.969.194,49.936.426c8.457.078,11.48-.38,24.023-2.365,7.244-1.03,6.913-16.229,6.913-16.229C790.176,451.946,791.026,453.3,783.517,435.057Z" transform="translate(-220.04 -431.444)" fill="#e2097a"/>
</svg>
