<svg xmlns="http://www.w3.org/2000/svg" width="311.979" height="65.254" viewBox="0 0 311.979 65.254">
  <path id="Tracé_243" data-name="Tracé 243" d="M528.556,435.58c-2.379-2.34-5.884-2.459-8.818-2.554q-53.634-1.713-107.3-1.57t-107.29,2.166q-30.131,1.134-60.243,2.856c-4.461.255-21.284-1.24-23.131,1.878-.975,1.646-3.367,15.435,0,56.844,3.5,2.408,13.339.723,17.34.67q61.161-.818,122.327-.765,16.022.015,32.044.095,46.962.246,93.919,1,13.671.222,27.341.488c4.63.089,6.286-.435,13.153-2.707,3.966-1.18,3.785-18.579,3.785-18.579C532.2,454.915,532.668,456.46,528.556,435.58Z" transform="translate(-220.04 -431.444)" fill="#e2097a"/>
</svg>
