<svg id="Groupe_1004" data-name="Groupe 1004" xmlns="http://www.w3.org/2000/svg" width="32.541" height="21.087" viewBox="0 0 32.541 21.087">
  <path id="Tracé_246" data-name="Tracé 246" d="M218.966,412.667a7.422,7.422,0,0,0-3.529-6.188,7.026,7.026,0,0,0-5.443-.792,6.151,6.151,0,0,0-3.775,2.531,6.94,6.94,0,0,0-1.968,6.821,7.465,7.465,0,0,0,7.034,5.427,7.589,7.589,0,0,0,1.181-.082,42.335,42.335,0,0,0-.753,4.474,1.21,1.21,0,0,0,2.005,1.167,15.019,15.019,0,0,0,3.473-4.879c1-.861,1.415-2.841,1.646-3.912A10.808,10.808,0,0,0,218.966,412.667Z" transform="translate(-204.024 -405.281)" fill="#fff"/>
  <path id="Tracé_247" data-name="Tracé 247" d="M393.766,410.893a7.423,7.423,0,0,0-3.529-6.188,7.027,7.027,0,0,0-5.443-.792,6.152,6.152,0,0,0-3.775,2.531,6.94,6.94,0,0,0-1.968,6.821,7.465,7.465,0,0,0,7.034,5.427,7.6,7.6,0,0,0,1.181-.082,42.368,42.368,0,0,0-.753,4.474,1.21,1.21,0,0,0,2.005,1.167,15.017,15.017,0,0,0,3.473-4.88c1-.861,1.415-2.841,1.646-3.912A10.809,10.809,0,0,0,393.766,410.893Z" transform="translate(-361.416 -403.685)" fill="#fff"/>
</svg>
