<svg id="Groupe_83" data-name="Groupe 83" xmlns="http://www.w3.org/2000/svg" width="30.918" height="30.918" viewBox="0 0 30.918 30.918">
  <path id="Tracé_107" data-name="Tracé 107" d="M21.256,0H9.662A9.663,9.663,0,0,0,0,9.662V21.256a9.663,9.663,0,0,0,9.662,9.662H21.256a9.663,9.663,0,0,0,9.662-9.662V9.662A9.663,9.663,0,0,0,21.256,0Zm6.763,21.256a6.771,6.771,0,0,1-6.763,6.763H9.662A6.771,6.771,0,0,1,2.9,21.256V9.662A6.771,6.771,0,0,1,9.662,2.9H21.256a6.771,6.771,0,0,1,6.763,6.763Z" fill="#fff"/>
  <path id="Tracé_108" data-name="Tracé 108" d="M135.729,128a7.729,7.729,0,1,0,7.729,7.729A7.73,7.73,0,0,0,135.729,128Zm0,12.56a4.831,4.831,0,1,1,4.831-4.831A4.838,4.838,0,0,1,135.729,140.56Z" transform="translate(-120.271 -120.271)" fill="#fff"/>
  <circle id="Ellipse_1" data-name="Ellipse 1" cx="1.03" cy="1.03" r="1.03" transform="translate(22.738 6.12)" fill="#fff"/>
</svg>
