<svg id="Groupe_17" data-name="Groupe 17" xmlns="http://www.w3.org/2000/svg" width="91.131" height="91.131" viewBox="0 0 91.131 91.131">
  <path id="Tracé_69" data-name="Tracé 69" d="M352.133,89.557a45.566,45.566,0,1,1-45.566-45.565A45.566,45.566,0,0,1,352.133,89.557Z" transform="translate(-261.002 -43.992)" fill="#fff"/>
  <path id="Tracé_70" data-name="Tracé 70" d="M363.056,107.694a38.351,38.351,0,1,1-38.351-38.35,38.351,38.351,0,0,1,38.351,38.35" transform="translate(-279.14 -62.129)" fill="#284194"/>
  <path id="Tracé_71" data-name="Tracé 71" d="M317.4,139.3A42.7,42.7,0,1,1,334.6,59.51c3.4,1.9,3.122,2.011,3.06,2.294a.332.332,0,0,1-.295.258c-.229.021-.312-.2-3.21-1.733a41.322,41.322,0,0,0-22.93-4.663,41.987,41.987,0,0,0-10.376,2.254A41.3,41.3,0,0,0,277.288,79a40.489,40.489,0,0,0-1.746,31.346,41.041,41.041,0,0,0,42.289,27.051h0a41.726,41.726,0,0,0,34.645-24.878c1.3-3,1.252-3.045,1.494-3.067a.335.335,0,0,1,.291.132c.133.179.281.2-.974,3.274A42.76,42.76,0,0,1,317.4,139.3h0" transform="translate(-268.188 -51.194)" fill="#284194"/>
  <g id="Groupe_20" data-name="Groupe 20" transform="translate(14.535 17.297)">
    <g id="Groupe_17-2" data-name="Groupe 17" transform="translate(13.535 0)">
      <path id="Tracé_72" data-name="Tracé 72" d="M359.636,121.54l2.171-.481a5.56,5.56,0,0,1,1.718-.149,2.72,2.72,0,0,1,1.287.505,4.848,4.848,0,0,1,1.52,1.886,16.293,16.293,0,0,1,1.116,3.549,14.974,14.974,0,0,1,.434,3.6,3.963,3.963,0,0,1-.677,2.24,5.343,5.343,0,0,1-3.243,1.616l-1.423.316-2.9-13.088m4.324,11.155a2.3,2.3,0,0,0,1.936-1.452,8.772,8.772,0,0,0-.28-3.913,11.3,11.3,0,0,0-1.458-4.044,2.016,2.016,0,0,0-2.21-.7l-.22.049Z" transform="translate(-359.636 -116.305)" fill="#fff"/>
      <path id="Tracé_73" data-name="Tracé 73" d="M399.683,119.429a11.593,11.593,0,0,1,.32,5.1,2.758,2.758,0,0,1-2.262,2.033,2.825,2.825,0,0,1-3.035-.973,13.724,13.724,0,0,1-1.98-5.279,11.73,11.73,0,0,1-.332-5.111,2.781,2.781,0,0,1,2.288-2.037,2.854,2.854,0,0,1,2.689.586,5.5,5.5,0,0,1,1.241,1.974,23.048,23.048,0,0,1,1.071,3.712m-1.807.6a21.358,21.358,0,0,0-1.3-4.441,1.3,1.3,0,0,0-1.493-.843,1.278,1.278,0,0,0-1.029,1.3,18.345,18.345,0,0,0,.614,4.221,17.024,17.024,0,0,0,1.206,3.913,1.3,1.3,0,0,0,1.471.776,1.269,1.269,0,0,0,1-1.254A13.287,13.287,0,0,0,397.876,120.026Z" transform="translate(-382.957 -110.699)" fill="#fff"/>
      <path id="Tracé_74" data-name="Tracé 74" d="M421.206,106.124l1.646-.365,2.912,4.831a49.029,49.029,0,0,1,2.393,4.423q-.548-1.47-.921-2.677t-.615-2.292l-1.084-4.88,1.764-.391,2.9,13.087-1.65.366-3.278-5.455q-.454-.762-.886-1.573c-.289-.542-1.074-2.222-1.142-2.361.051.144.6,1.94.6,1.94s.513,1.794.546,1.924,1.461,6.124,1.461,6.124l-1.747.387-2.9-13.087" transform="translate(-403.684 -104.773)" fill="#fff"/>
    </g>
    <g id="Groupe_18" data-name="Groupe 18" transform="translate(24.09 17.371)">
      <path id="Tracé_75" data-name="Tracé 75" d="M400.322,175.552l1.278-.283q.378,2.416-1.625,2.86a2.424,2.424,0,0,1-1.067.023,1.764,1.764,0,0,1-.846-.468,3.154,3.154,0,0,1-.652-.986,8.046,8.046,0,0,1-.476-1.524,5.142,5.142,0,0,1-.04-2.772,1.919,1.919,0,0,1,1.507-1.239q2.23-.494,3.024,3.082l.035.156-3.136.7q.481,2.166,1.428,1.957.861-.191.569-1.5m-.46-1.739a4.3,4.3,0,0,0-.575-1.338.643.643,0,0,0-.686-.238.631.631,0,0,0-.519.5,4.251,4.251,0,0,0,.043,1.456Z" transform="translate(-396.725 -169.599)" fill="#fff"/>
      <path id="Tracé_76" data-name="Tracé 76" d="M416.536,166.617l1.372-.3.171.776a1.81,1.81,0,0,1,1.325-1.225,1.418,1.418,0,0,1,1.432.359,3.192,3.192,0,0,1,.532,1.369l1.064,4.8-1.37.3-1.008-4.515a1.987,1.987,0,0,0-.4-.933.683.683,0,0,0-.681-.15.968.968,0,0,0-.381.162.613.613,0,0,0-.208.3,1.259,1.259,0,0,0-.052.467,4.064,4.064,0,0,0,.1.669l.968,4.366-1.37.3-1.5-6.755" transform="translate(-410.898 -165.812)" fill="#fff"/>
    </g>
    <g id="Groupe_19" data-name="Groupe 19" transform="translate(0 20.706)">
      <path id="Tracé_77" data-name="Tracé 77" d="M316.466,223.567l.352,1.585a2.783,2.783,0,0,0-1.209-.079,1.883,1.883,0,0,0-1.007.548,2.291,2.291,0,0,0-.53,1.118,6.178,6.178,0,0,0-.071,1.727,17.56,17.56,0,0,0,.378,2.366q1.074,4.848,3.558,4.3a2.709,2.709,0,0,0,.982-.5l.359,1.62a2.927,2.927,0,0,1-1.345.672q-3.975.881-5.415-5.611a11.174,11.174,0,0,1-.187-5.436,3.274,3.274,0,0,1,2.592-2.371,3.107,3.107,0,0,1,1.543.067" transform="translate(-312.076 -210.369)" fill="#fff"/>
      <path id="Tracé_78" data-name="Tracé 78" d="M343.856,224.639a11.587,11.587,0,0,1,.32,5.095,2.754,2.754,0,0,1-2.263,2.03,2.822,2.822,0,0,1-3.034-.971,13.708,13.708,0,0,1-1.98-5.279,11.742,11.742,0,0,1-.332-5.111,2.78,2.78,0,0,1,2.288-2.036,2.86,2.86,0,0,1,2.691.585,5.484,5.484,0,0,1,1.238,1.976,22.739,22.739,0,0,1,1.072,3.711m-1.807.6a21.455,21.455,0,0,0-1.3-4.441,1.3,1.3,0,0,0-1.495-.843,1.279,1.279,0,0,0-1.026,1.3,18.27,18.27,0,0,0,.616,4.22,17.029,17.029,0,0,0,1.2,3.913,1.3,1.3,0,0,0,1.471.776,1.267,1.267,0,0,0,1-1.253A13.337,13.337,0,0,0,342.048,225.234Z" transform="translate(-329.483 -206.673)" fill="#fff"/>
      <path id="Tracé_79" data-name="Tracé 79" d="M365.383,211.33l1.644-.365,2.911,4.833a48.734,48.734,0,0,1,2.4,4.42c-.365-.98-.674-1.871-.922-2.675s-.455-1.568-.616-2.291l-1.082-4.883,1.762-.391,2.9,13.087-1.649.365-3.278-5.453c-.3-.508-.6-1.032-.887-1.572s-1.074-2.223-1.139-2.363c.048.143.6,1.939.6,1.939s.513,1.795.546,1.926,1.46,6.123,1.46,6.123l-1.746.386-2.9-13.086" transform="translate(-350.213 -200.744)" fill="#fff"/>
      <path id="Tracé_80" data-name="Tracé 80" d="M461.725,189.972l1.643-.364,2.911,4.833a48.657,48.657,0,0,1,2.4,4.42q-.548-1.471-.922-2.675t-.616-2.291l-1.082-4.883,1.763-.391,2.9,13.086-1.649.366-3.277-5.454q-.456-.762-.888-1.572c-.288-.541-1.074-2.222-1.139-2.362.048.143.6,1.939.6,1.939s.513,1.795.545,1.925,1.461,6.123,1.461,6.123l-1.746.386-2.9-13.087" transform="translate(-419.137 -185.465)" fill="#fff"/>
      <path id="Tracé_81" data-name="Tracé 81" d="M396.2,205.266l4.711-1.045.332,1.492-2.949.654.917,4.135,2.661-.589.331,1.492-2.661.589,1.323,5.967-1.762.391-2.9-13.087" transform="translate(-372.262 -196.625)" fill="#fff"/>
      <path id="Tracé_82" data-name="Tracé 82" d="M419.544,201.736l1.761-.39,2.9,13.087-1.763.391-2.9-13.088" transform="translate(-388.96 -194.568)" fill="#fff"/>
      <path id="Tracé_83" data-name="Tracé 83" d="M441.391,197.107l1.373-.3,5.707,12.465-1.746.386-1.057-2.442-2.594.575.067,2.662-1.7.376-.053-13.719m3.72,8.8-.853-2q-.861-2.041-1.643-4.4.142,1.206.224,2.454t.126,2.662l.052,1.75Z" transform="translate(-404.59 -191.319)" fill="#fff"/>
      <path id="Tracé_84" data-name="Tracé 84" d="M499.108,183.072l.351,1.584a2.8,2.8,0,0,0-1.21-.078,1.889,1.889,0,0,0-1.007.548,2.291,2.291,0,0,0-.53,1.118,6.192,6.192,0,0,0-.071,1.726,17.416,17.416,0,0,0,.378,2.368q1.075,4.845,3.558,4.3a2.74,2.74,0,0,0,.983-.5l.358,1.62a2.935,2.935,0,0,1-1.344.671q-3.977.879-5.416-5.611a11.163,11.163,0,0,1-.185-5.437,3.262,3.262,0,0,1,2.589-2.369,3.089,3.089,0,0,1,1.544.067" transform="translate(-442.74 -181.399)" fill="#fff"/>
      <path id="Tracé_85" data-name="Tracé 85" d="M516.654,178.572l4.687-1.04.331,1.493-2.925.648.919,4.145,2.595-.574.331,1.49-2.595.576.992,4.468,2.924-.649.331,1.491-4.687,1.039-2.9-13.087" transform="translate(-458.434 -177.531)" fill="#fff"/>
    </g>
  </g>
  <g id="Groupe_21" data-name="Groupe 21" transform="translate(24.779 57.239)">
    <path id="Tracé_86" data-name="Tracé 86" d="M351.442,283.087l-.619.766a1.8,1.8,0,0,0-.087-.616.876.876,0,0,0-.286-.384.912.912,0,0,0-.726-.209,1.026,1.026,0,0,0-.676.4,1.051,1.051,0,0,0-.259.745.9.9,0,0,0,.353.657.948.948,0,0,0,.44.207,1.868,1.868,0,0,0,.634-.046l-.615.761a1.957,1.957,0,0,1-.849-.385,1.725,1.725,0,0,1-.667-1.156,1.606,1.606,0,0,1,.365-1.251,1.629,1.629,0,0,1,1.157-.625,1.718,1.718,0,0,1,1.279.4,1.863,1.863,0,0,1,.556.741" transform="translate(-348.072 -271.463)" fill="#fff"/>
    <path id="Tracé_87" data-name="Tracé 87" d="M358.84,289.975a1.6,1.6,0,0,1,1.041-.75,1.757,1.757,0,0,1,2.074,1.27,1.718,1.718,0,0,1-1.261,2.06,1.706,1.706,0,0,1-1.3-.227,1.632,1.632,0,0,1-.774-1.053,1.666,1.666,0,0,1,.222-1.3m.64.407a1.081,1.081,0,0,0-.176.783,1,1,0,0,0,1.185.727,1.2,1.2,0,0,0,.779-1.277.906.906,0,0,0-.445-.6.892.892,0,0,0-.736-.117A1.032,1.032,0,0,0,359.48,290.383Z" transform="translate(-355.582 -276.641)" fill="#fff"/>
    <path id="Tracé_88" data-name="Tracé 88" d="M371.808,294.76l.686.282-.113.275a1.573,1.573,0,0,1,.454-.141.886.886,0,0,1,.406.078.988.988,0,0,1,.615.766,1.112,1.112,0,0,1,1.055-.079q1,.415.5,1.629l-.756,1.835-.687-.285.678-1.648a1.37,1.37,0,0,0,.144-.646.406.406,0,0,0-.276-.324.485.485,0,0,0-.5.043,1.483,1.483,0,0,0-.411.633l-.632,1.533-.689-.285.675-1.638q.326-.793-.132-.98a.493.493,0,0,0-.511.042,1.463,1.463,0,0,0-.414.628l-.63,1.533-.685-.283,1.221-2.967" transform="translate(-364.179 -280.634)" fill="#fff"/>
    <path id="Tracé_89" data-name="Tracé 89" d="M391.787,297.553l-.834,3.1-.716-.193.833-3.1.717.193m-.477-1.51a.457.457,0,0,1,.223-.288.48.48,0,0,1,.659.179.453.453,0,0,1,.049.363.467.467,0,0,1-.226.294.452.452,0,0,1-.365.05.471.471,0,0,1-.294-.228A.466.466,0,0,1,391.31,296.043Z" transform="translate(-378.237 -281.298)" fill="#fff"/>
    <path id="Tracé_90" data-name="Tracé 90" d="M399.824,301.3l-.464,2.476-.729-.137.462-2.474-.311-.058.128-.68.31.058.216-1.156.728.136-.215,1.157.567.106-.127.68-.566-.106" transform="translate(-384.243 -283.903)" fill="#fff"/>
    <path id="Tracé_91" data-name="Tracé 91" d="M410.506,306.773l-2.293-.17a.974.974,0,0,0,.209.647.783.783,0,0,0,.565.272.752.752,0,0,0,.467-.1,1.861,1.861,0,0,0,.441-.456l.6.395a2.6,2.6,0,0,1-.337.4,1.613,1.613,0,0,1-.367.264,1.394,1.394,0,0,1-.411.136,1.942,1.942,0,0,1-.467.018,1.513,1.513,0,0,1-1.116-.546,1.734,1.734,0,0,1-.342-1.261,1.778,1.778,0,0,1,.512-1.2,1.607,1.607,0,0,1,2.242.154,1.778,1.778,0,0,1,.315,1.269l-.017.174m-.713-.661a.71.71,0,0,0-.7-.646.749.749,0,0,0-.255.022.724.724,0,0,0-.225.1.755.755,0,0,0-.179.173.846.846,0,0,0-.124.239Z" transform="translate(-390.549 -287.81)" fill="#fff"/>
    <path id="Tracé_92" data-name="Tracé 92" d="M424.128,305.066l.048.984a1.793,1.793,0,0,0-.475-.4.881.881,0,0,0-.469-.1.912.912,0,0,0-.68.326,1.032,1.032,0,0,0-.241.748,1.054,1.054,0,0,0,.3.727.9.9,0,0,0,.7.257.954.954,0,0,0,.465-.139,1.868,1.868,0,0,0,.443-.457l.047.978a1.942,1.942,0,0,1-.89.277,1.732,1.732,0,0,1-1.268-.419,1.608,1.608,0,0,1-.559-1.177,1.626,1.626,0,0,1,.448-1.236,1.719,1.719,0,0,1,1.22-.554,1.867,1.867,0,0,1,.906.183" transform="translate(-400.64 -287.874)" fill="#fff"/>
    <path id="Tracé_93" data-name="Tracé 93" d="M432.965,296.127l.73-.133.472,2.58a1.279,1.279,0,0,1,.795-.508,1.129,1.129,0,0,1,.92.191,1.432,1.432,0,0,1,.447.912l.356,1.935-.73.133-.342-1.867a.9.9,0,0,0-.236-.525.524.524,0,0,0-.464-.091.6.6,0,0,0-.494.335,1.643,1.643,0,0,0,0,.851l.279,1.526-.729.135-1-5.476" transform="translate(-408.805 -281.517)" fill="#fff"/>
    <path id="Tracé_94" data-name="Tracé 94" d="M450.363,298.863l.708-.23.994,3.052-.709.231-.1-.32a1.423,1.423,0,0,1-2,.595,1.79,1.79,0,0,1-.789-1.032,1.737,1.737,0,0,1,.038-1.278,1.389,1.389,0,0,1,.878-.791,1.359,1.359,0,0,1,1.1.127l-.115-.354m-1.179,2.061a1.118,1.118,0,0,0,.467.638.819.819,0,0,0,.7.081.852.852,0,0,0,.545-.477,1.221,1.221,0,0,0-.462-1.416.834.834,0,0,0-.715-.068.823.823,0,0,0-.519.474A1.07,1.07,0,0,0,449.183,300.925Z" transform="translate(-419.819 -283.405)" fill="#fff"/>
    <path id="Tracé_95" data-name="Tracé 95" d="M462.051,294.773l.671-.315.122.259a1.393,1.393,0,0,1,.2-.42.833.833,0,0,1,.31-.237,1.2,1.2,0,0,1,.637-.087l-.019.758a.709.709,0,0,0-.437.038q-.549.258-.16,1.088l.709,1.506-.672.315-1.364-2.9" transform="translate(-429.614 -280.065)" fill="#fff"/>
    <path id="Tracé_96" data-name="Tracé 96" d="M470.985,288.785l1.274,2.171-.64.375-1.273-2.171-.272.16-.351-.6.273-.161-.6-1.014.639-.375.595,1.014.5-.292.35.6-.5.292" transform="translate(-434.872 -275.207)" fill="#fff"/>
    <path id="Tracé_97" data-name="Tracé 97" d="M482.328,284.876l-1.85,1.368a.977.977,0,0,0,.581.353.785.785,0,0,0,.605-.162.759.759,0,0,0,.29-.378,1.885,1.885,0,0,0,.036-.633l.711-.091a2.48,2.48,0,0,1,.006.521,1.644,1.644,0,0,1-.106.44,1.409,1.409,0,0,1-.222.371,1.85,1.85,0,0,1-.342.317,1.511,1.511,0,0,1-1.2.316,1.735,1.735,0,0,1-1.083-.733,1.775,1.775,0,0,1-.392-1.242,1.606,1.606,0,0,1,1.8-1.347,1.776,1.776,0,0,1,1.067.756l.1.142m-.972-.035a.71.71,0,0,0-.954-.032.73.73,0,0,0-.18.183.713.713,0,0,0-.1.224.738.738,0,0,0-.023.248.864.864,0,0,0,.062.262Z" transform="translate(-441.993 -272.902)" fill="#fff"/>
    <path id="Tracé_98" data-name="Tracé 98" d="M496.011,284.425a.458.458,0,0,1,.673-.622.446.446,0,0,1,.123.33.432.432,0,0,1-.145.317.444.444,0,0,1-.329.126.452.452,0,0,1-.322-.151" transform="translate(-453.824 -272.692)" fill="#fff"/>
    <path id="Tracé_99" data-name="Tracé 99" d="M497.114,270.728a1.589,1.589,0,0,1-.57-1.149,1.755,1.755,0,0,1,1.595-1.838,1.72,1.72,0,0,1,1.824,1.583,1.7,1.7,0,0,1-.439,1.246,1.628,1.628,0,0,1-1.164.59,1.656,1.656,0,0,1-1.246-.433m.505-.564a1.08,1.08,0,0,0,.744.3,1,1,0,0,0,.912-1.049,1.2,1.2,0,0,0-1.13-.979.988.988,0,0,0-.906,1.048A1.035,1.035,0,0,0,497.619,270.164Z" transform="translate(-454.288 -261.3)" fill="#fff"/>
    <path id="Tracé_100" data-name="Tracé 100" d="M504.2,258.375l.415-.614.238.16a1.423,1.423,0,0,1-.041-.465.837.837,0,0,1,.145-.363,1.205,1.205,0,0,1,.5-.4l.372.661a.718.718,0,0,0-.356.257q-.339.5.42,1.016l1.38.931-.415.615-2.66-1.8" transform="translate(-459.771 -253.4)" fill="#fff"/>
    <path id="Tracé_101" data-name="Tracé 101" d="M514.528,246.562c.134.071.251.135.348.2a2.665,2.665,0,0,1,.252.176,1.348,1.348,0,0,1,.411.561,1.5,1.5,0,0,1-.1,1.292,1.591,1.591,0,0,1-.794.781,1.417,1.417,0,0,1-1.1-.014l.341-.661a.858.858,0,0,0,.39.042.8.8,0,0,0,.576-.46q.373-.722-.511-1.179l-.4-.206a1.385,1.385,0,0,1-.066,1.112,1.371,1.371,0,0,1-.915.736,1.748,1.748,0,0,1-1.262-.178,1.851,1.851,0,0,1-.88-.895,1.363,1.363,0,0,1,.049-1.229,1.3,1.3,0,0,1,.864-.689l-.322-.165.341-.659,2.784,1.439m-1.678-.066a1.083,1.083,0,0,0-.779-.12.831.831,0,0,0-.552.445.8.8,0,0,0-.028.735,1.287,1.287,0,0,0,1.28.662.8.8,0,0,0,.577-.451.816.816,0,0,0,.034-.739A1.109,1.109,0,0,0,512.851,246.5Z" transform="translate(-464.411 -245.123)" fill="#fff"/>
  </g>
</svg>
