<svg id="Logo_ARC" data-name="Logo ARC" xmlns="http://www.w3.org/2000/svg" width="207.864" height="55.567" viewBox="0 0 207.864 55.567">
  <g id="Groupe_6" data-name="Groupe 6" transform="translate(7.324 3.781)">
    <g id="Groupe_1" data-name="Groupe 1">
      <path id="Tracé_1" data-name="Tracé 1" d="M26.353,44.125v1.949h3.324V48.64H26.353v4.579H23.322V41.558h6.7v2.567Z" transform="translate(-23.322 -41.171)" fill="#fff"/>
      <path id="Tracé_2" data-name="Tracé 2" d="M45.787,47.083a6.2,6.2,0,0,1-6.449,6.434,6.221,6.221,0,1,1,0-12.434A6.227,6.227,0,0,1,45.787,47.083Zm-9.743.015a3.3,3.3,0,1,0,6.588,0,3.3,3.3,0,0,0-6.588,0Z" transform="translate(-25.096 -41.083)" fill="#fff"/>
      <path id="Tracé_3" data-name="Tracé 3" d="M50.45,41.558h3.03l5.552,7.129h.03V41.558h3.032V53.219H59.063l-5.551-7.145H53.48v7.145H50.45Z" transform="translate(-28.352 -41.171)" fill="#fff"/>
      <path id="Tracé_4" data-name="Tracé 4" d="M67.173,41.558h4.3a5.831,5.831,0,1,1,0,11.661h-4.3ZM70.2,50.651h.68a3.264,3.264,0,1,0,.031-6.527H70.2Z" transform="translate(-31.452 -41.171)" fill="#fff"/>
      <path id="Tracé_5" data-name="Tracé 5" d="M84.18,51.192l-.8,2.027H80.159l4.484-11.661h3.31l4.392,11.661H89.113l-.758-2.027Zm2.119-6.03h-.031l-1.252,3.711h2.52Z" transform="translate(-33.86 -41.171)" fill="#fff"/>
      <path id="Tracé_6" data-name="Tracé 6" d="M99.575,53.219h-3.03V44.125h-2.5V41.558h8.042v2.567H99.575Z" transform="translate(-36.433 -41.171)" fill="#fff"/>
      <path id="Tracé_7" data-name="Tracé 7" d="M108.29,53.219h-3.032V41.558h3.032Z" transform="translate(-38.513 -41.171)" fill="#fff"/>
      <path id="Tracé_8" data-name="Tracé 8" d="M123.585,47.083a6.465,6.465,0,1,1-6.448-6A6.2,6.2,0,0,1,123.585,47.083Zm-9.743.015a3.3,3.3,0,1,0,6.588,0,3.3,3.3,0,0,0-6.588,0Z" transform="translate(-39.52 -41.083)" fill="#fff"/>
      <path id="Tracé_9" data-name="Tracé 9" d="M128.248,41.558h3.03l5.552,7.129h.031V41.558h3.03V53.219h-3.03l-5.552-7.145h-.031v7.145h-3.03Z" transform="translate(-42.776 -41.171)" fill="#fff"/>
      <path id="Tracé_10" data-name="Tracé 10" d="M154.214,51.192l-.8,2.027h-3.216l4.484-11.661h3.311l4.391,11.661h-3.232l-.758-2.027Zm2.117-6.03h-.03l-1.252,3.711h2.52Z" transform="translate(-46.844 -41.171)" fill="#fff"/>
      <path id="Tracé_11" data-name="Tracé 11" d="M176.006,53.219h-3.774l-2.861-4.485h-.03v4.485H166.31V41.558h4.532c2.3,0,4.051,1.1,4.051,3.587a3.135,3.135,0,0,1-2.552,3.294Zm-6.665-6.434h.293c.991,0,2.1-.186,2.1-1.454s-1.113-1.454-2.1-1.454h-.293Z" transform="translate(-49.833 -41.171)" fill="#fff"/>
      <path id="Tracé_12" data-name="Tracé 12" d="M187.42,45.4a3.287,3.287,0,0,0-2.66-1.283,3.071,3.071,0,0,0-3.107,3.231,3.024,3.024,0,0,0,3.153,3.17,3.484,3.484,0,0,0,2.614-1.237v3.635a8.6,8.6,0,0,1-2.674.541,6.487,6.487,0,0,1-4.377-1.717,5.7,5.7,0,0,1-1.871-4.407,6.107,6.107,0,0,1,1.715-4.268,6.324,6.324,0,0,1,4.44-1.887,7.1,7.1,0,0,1,2.768.588Z" transform="translate(-52.092 -41.101)" fill="#fff"/>
    </g>
    <g id="Groupe_2" data-name="Groupe 2" transform="translate(4.614 18.064)">
      <path id="Tracé_13" data-name="Tracé 13" d="M29.808,71.065h-.822V63.691H30.2a3.109,3.109,0,0,1,1.828.391,2.033,2.033,0,0,1,.831,1.682,2.07,2.07,0,0,1-.7,1.584,2.659,2.659,0,0,1-1.751.489h-.6Zm0-3.991h.547c.91,0,1.682-.274,1.682-1.329,0-1.2-.968-1.291-1.927-1.291h-.3Z" transform="translate(-28.986 -63.339)" fill="#fff"/>
      <path id="Tracé_14" data-name="Tracé 14" d="M42.257,67.359a3.843,3.843,0,1,1-3.843-3.824A3.823,3.823,0,0,1,42.257,67.359Zm-6.865-.01A3.022,3.022,0,1,0,38.413,64.3,3.049,3.049,0,0,0,35.391,67.349Z" transform="translate(-30.021 -63.31)" fill="#fff"/>
      <path id="Tracé_15" data-name="Tracé 15" d="M46.173,68.082a2.725,2.725,0,0,0,.323,1.641,1.9,1.9,0,0,0,1.486.7,1.946,1.946,0,0,0,1.448-.655,2.534,2.534,0,0,0,.362-1.691V63.691h.821v4.616a2.591,2.591,0,0,1-.645,2.044,2.713,2.713,0,0,1-1.986.84,2.765,2.765,0,0,1-1.907-.752,2.6,2.6,0,0,1-.723-2.132V63.691h.821Z" transform="translate(-32.02 -63.339)" fill="#fff"/>
      <path id="Tracé_16" data-name="Tracé 16" d="M54.422,71.065H53.6V63.691h1.065c1.4,0,2.7.372,2.7,2.035a1.926,1.926,0,0,1-1.848,2.033l2.347,3.306H56.858l-2.23-3.237h-.205Zm0-3.961h.255c.928,0,1.867-.176,1.867-1.32,0-1.213-.89-1.33-1.878-1.33h-.244Z" transform="translate(-33.55 -63.339)" fill="#fff"/>
      <path id="Tracé_17" data-name="Tracé 17" d="M64.628,70.3h2.035v.763H63.807V63.691h.821Z" transform="translate(-35.442 -63.339)" fill="#fff"/>
      <path id="Tracé_18" data-name="Tracé 18" d="M69.259,68.891l-.89,2.094h-.9l3.4-7.726,3.315,7.726h-.908l-.872-2.094Zm1.594-3.715-1.262,2.953h2.494Z" transform="translate(-36.121 -63.259)" fill="#fff"/>
    </g>
    <g id="Groupe_3" data-name="Groupe 3" transform="translate(45.869 13.852)">
      <path id="Tracé_19" data-name="Tracé 19" d="M89.328,70.127H85.555l-2.862-4.484h-.03v4.484H79.631V58.467h4.532c2.3,0,4.051,1.1,4.051,3.587a3.135,3.135,0,0,1-2.551,3.3Zm-6.665-6.433h.293c.99,0,2.1-.186,2.1-1.453s-1.114-1.454-2.1-1.454h-.293Z" transform="translate(-79.631 -58.158)" fill="#fff"/>
      <path id="Tracé_20" data-name="Tracé 20" d="M95.571,61.035v1.948h3.418V65.55H95.571v2.011h3.6v2.566H92.541V58.467h6.634v2.568Z" transform="translate(-82.025 -58.158)" fill="#fff"/>
      <path id="Tracé_21" data-name="Tracé 21" d="M111.183,62.31a3.29,3.29,0,0,0-2.66-1.284,3.072,3.072,0,0,0-3.108,3.232,3.025,3.025,0,0,0,3.154,3.17,3.486,3.486,0,0,0,2.614-1.238v3.635a8.6,8.6,0,0,1-2.675.541,6.493,6.493,0,0,1-4.377-1.716,5.7,5.7,0,0,1-1.871-4.407,6.1,6.1,0,0,1,1.717-4.269,6.315,6.315,0,0,1,4.438-1.886,7.106,7.106,0,0,1,2.768.588Z" transform="translate(-83.827 -58.088)" fill="#fff"/>
      <path id="Tracé_22" data-name="Tracé 22" d="M122.918,62.968v-4.5h3.031v11.66h-3.031V65.35h-4.377v4.778H115.51V58.467h3.031v4.5Z" transform="translate(-86.283 -58.158)" fill="#fff"/>
      <path id="Tracé_23" data-name="Tracé 23" d="M133.785,61.035v1.948H137.2V65.55h-3.418v2.011h3.6v2.566h-6.634V58.467h6.634v2.568Z" transform="translate(-89.109 -58.158)" fill="#fff"/>
      <path id="Tracé_24" data-name="Tracé 24" d="M150.891,70.127h-3.772l-2.862-4.484h-.03v4.484H141.2V58.467h4.532c2.3,0,4.052,1.1,4.052,3.587a3.135,3.135,0,0,1-2.551,3.3Zm-6.665-6.433h.294c.99,0,2.1-.186,2.1-1.453s-1.114-1.454-2.1-1.454h-.294Z" transform="translate(-91.045 -58.158)" fill="#fff"/>
      <path id="Tracé_25" data-name="Tracé 25" d="M162.305,62.31a3.29,3.29,0,0,0-2.66-1.284,3.071,3.071,0,0,0-3.107,3.232,3.024,3.024,0,0,0,3.155,3.17,3.481,3.481,0,0,0,2.612-1.238v3.635a8.588,8.588,0,0,1-2.674.541,6.49,6.49,0,0,1-4.377-1.716,5.7,5.7,0,0,1-1.871-4.407,6.106,6.106,0,0,1,1.716-4.269,6.316,6.316,0,0,1,4.439-1.886,7.1,7.1,0,0,1,2.767.588Z" transform="translate(-93.305 -58.088)" fill="#fff"/>
      <path id="Tracé_26" data-name="Tracé 26" d="M174.041,62.968v-4.5h3.03v11.66h-3.03V65.35h-4.378v4.778h-3.03V58.467h3.03v4.5Z" transform="translate(-95.762 -58.158)" fill="#fff"/>
      <path id="Tracé_27" data-name="Tracé 27" d="M184.908,61.035v1.948h3.417V65.55h-3.417v2.011h3.6v2.566h-6.634V58.467h6.634v2.568Z" transform="translate(-98.588 -58.158)" fill="#fff"/>
    </g>
    <g id="Groupe_4" data-name="Groupe 4" transform="translate(39.139 31.91)">
      <path id="Tracé_28" data-name="Tracé 28" d="M75.066,81.821a1.354,1.354,0,0,0-1.272-.8,1.171,1.171,0,0,0-1.223,1.145c0,.635.656.929,1.154,1.153l.489.215c.959.421,1.771.9,1.771,2.072a2.328,2.328,0,0,1-4.616.372l.8-.226a1.521,1.521,0,0,0,1.478,1.371,1.483,1.483,0,0,0,1.515-1.439c0-.861-.674-1.154-1.36-1.466l-.45-.2c-.861-.391-1.6-.832-1.6-1.888a1.936,1.936,0,0,1,2.064-1.877A2.114,2.114,0,0,1,75.72,81.4Z" transform="translate(-71.369 -80.256)" fill="#fff"/>
      <path id="Tracé_29" data-name="Tracé 29" d="M79.311,84.8a2.721,2.721,0,0,0,.323,1.642,1.9,1.9,0,0,0,1.486.705,1.954,1.954,0,0,0,1.448-.656,2.545,2.545,0,0,0,.361-1.692V80.413h.822v4.615a2.589,2.589,0,0,1-.645,2.043,2.714,2.714,0,0,1-1.986.841,2.759,2.759,0,0,1-1.907-.753,2.6,2.6,0,0,1-.723-2.131V80.413h.822Z" transform="translate(-72.689 -80.285)" fill="#fff"/>
      <path id="Tracé_30" data-name="Tracé 30" d="M87.559,87.787h-.821V80.413H87.8c1.4,0,2.7.371,2.7,2.033a1.927,1.927,0,0,1-1.849,2.034L91,87.787H89.995l-2.23-3.238h-.205Zm0-3.961h.254c.929,0,1.868-.178,1.868-1.321,0-1.213-.89-1.329-1.878-1.329h-.244Z" transform="translate(-74.218 -80.285)" fill="#fff"/>
      <path id="Tracé_31" data-name="Tracé 31" d="M97.766,87.023H99.8v.764H96.944V80.413h.822Z" transform="translate(-76.111 -80.285)" fill="#fff"/>
      <path id="Tracé_32" data-name="Tracé 32" d="M101.447,80.413h3.823v.762h-3v2.19h2.915v.763h-2.915v2.893h3v.764h-3.823Z" transform="translate(-76.946 -80.285)" fill="#fff"/>
    </g>
    <g id="Groupe_5" data-name="Groupe 5" transform="translate(70.685 27.414)">
      <path id="Tracé_33" data-name="Tracé 33" d="M119.019,78.958a3.291,3.291,0,0,0-2.66-1.284,3.072,3.072,0,0,0-3.109,3.231,3.024,3.024,0,0,0,3.155,3.17,3.491,3.491,0,0,0,2.614-1.237v3.635a8.625,8.625,0,0,1-2.676.541,6.492,6.492,0,0,1-4.376-1.716,5.7,5.7,0,0,1-1.872-4.408,6.1,6.1,0,0,1,1.717-4.268,6.315,6.315,0,0,1,4.439-1.887,7.109,7.109,0,0,1,2.768.588Z" transform="translate(-110.095 -74.736)" fill="#fff"/>
      <path id="Tracé_34" data-name="Tracé 34" d="M126.077,84.75l-.8,2.027h-3.216l4.484-11.661h3.309l4.392,11.661h-3.232l-.757-2.027Zm2.118-6.031h-.031l-1.252,3.712h2.52Z" transform="translate(-112.313 -74.806)" fill="#fff"/>
      <path id="Tracé_35" data-name="Tracé 35" d="M138.172,75.116H141.2l5.552,7.129h.03V75.116h3.031V86.777h-3.031l-5.551-7.146H141.2v7.146h-3.031Z" transform="translate(-115.301 -74.806)" fill="#fff"/>
      <path id="Tracé_36" data-name="Tracé 36" d="M163.1,78.958a3.286,3.286,0,0,0-2.659-1.284,3.072,3.072,0,0,0-3.109,3.231,3.024,3.024,0,0,0,3.155,3.17A3.485,3.485,0,0,0,163.1,82.84v3.635a8.611,8.611,0,0,1-2.674.541,6.49,6.49,0,0,1-4.377-1.716,5.7,5.7,0,0,1-1.871-4.408,6.1,6.1,0,0,1,1.716-4.268,6.312,6.312,0,0,1,4.437-1.887,7.1,7.1,0,0,1,2.769.588Z" transform="translate(-118.268 -74.736)" fill="#fff"/>
      <path id="Tracé_37" data-name="Tracé 37" d="M170.456,77.684v1.948h3.42V82.2h-3.42v2.011h3.6v2.568h-6.634V75.116h6.634v2.568Z" transform="translate(-120.724 -74.806)" fill="#fff"/>
      <path id="Tracé_38" data-name="Tracé 38" d="M187.562,86.777h-3.772l-2.863-4.485h-.03v4.485h-3.031V75.116H182.4c2.3,0,4.052,1.1,4.052,3.587A3.136,3.136,0,0,1,183.9,82ZM180.9,80.343h.294c.99,0,2.1-.186,2.1-1.455s-1.114-1.452-2.1-1.452H180.9Z" transform="translate(-122.66 -74.806)" fill="#fff"/>
    </g>
  </g>
  <g id="Groupe_7" data-name="Groupe 7" transform="translate(64.492 48.894)">
    <path id="Tracé_39" data-name="Tracé 39" d="M94.015,101.618H93.5V97h.668c.877,0,1.691.233,1.691,1.275A1.207,1.207,0,0,1,94.7,99.547l1.471,2.072h-.631l-1.4-2.028h-.13Zm0-2.482h.16c.582,0,1.17-.11,1.17-.828,0-.759-.557-.833-1.176-.833h-.154Z" transform="translate(-93.501 -96.563)" fill="#fff"/>
    <path id="Tracé_40" data-name="Tracé 40" d="M98.14,100.66a.933.933,0,0,0,.944.962.986.986,0,0,0,.876-.595l.416.239a1.452,1.452,0,0,1-1.329.81,1.394,1.394,0,0,1-1.41-1.483,1.4,1.4,0,1,1,2.764.068Zm1.746-.416a.879.879,0,0,0-.846-.754.91.91,0,0,0-.877.754Z" transform="translate(-94.268 -96.941)" fill="#fff"/>
    <path id="Tracé_41" data-name="Tracé 41" d="M104.305,99.974h-.013a1.108,1.108,0,0,0-.894-.485,1.03,1.03,0,0,0-1.017,1.066,1.009,1.009,0,0,0,.992,1.066,1.122,1.122,0,0,0,.938-.5h.011v.655a1.567,1.567,0,0,1-.913.295,1.492,1.492,0,0,1-1.532-1.52,1.521,1.521,0,0,1,1.539-1.52,1.552,1.552,0,0,1,.889.288Z" transform="translate(-95.054 -96.941)" fill="#fff"/>
    <path id="Tracé_42" data-name="Tracé 42" d="M105.873,100.562a1.513,1.513,0,1,1,1.514,1.514A1.512,1.512,0,0,1,105.873,100.562Zm.49-.006a1.024,1.024,0,1,0,1.024-1.066A1.02,1.02,0,0,0,106.363,100.556Z" transform="translate(-95.795 -96.941)" fill="#fff"/>
    <path id="Tracé_43" data-name="Tracé 43" d="M111.281,99.466h.012a.966.966,0,0,1,.82-.43c.8,0,.982.576.982,1.25V102h-.49v-1.623c0-.467-.037-.883-.607-.883-.674,0-.717.625-.717,1.14V102h-.491v-2.88h.491Z" transform="translate(-96.706 -96.941)" fill="#fff"/>
    <path id="Tracé_44" data-name="Tracé 44" d="M115.628,99.466h.011a.967.967,0,0,1,.821-.43c.8,0,.981.576.981,1.25V102h-.49v-1.623c0-.467-.037-.883-.607-.883-.674,0-.717.625-.717,1.14V102h-.491v-2.88h.491Z" transform="translate(-97.512 -96.941)" fill="#fff"/>
    <path id="Tracé_45" data-name="Tracé 45" d="M119.93,100.74c0,.484.056.9.65.9s.65-.417.65-.9v-1.6h.49v1.66c0,.766-.288,1.3-1.14,1.3s-1.14-.534-1.14-1.3v-1.66h.49Z" transform="translate(-98.31 -96.959)" fill="#fff"/>
    <path id="Tracé_46" data-name="Tracé 46" d="M123.9,100.66a.932.932,0,0,0,.943.962.986.986,0,0,0,.877-.595l.416.239a1.454,1.454,0,0,1-1.329.81,1.394,1.394,0,0,1-1.409-1.483,1.4,1.4,0,1,1,2.764.068Zm1.746-.416a.879.879,0,0,0-.846-.754.912.912,0,0,0-.877.754Z" transform="translate(-99.044 -96.941)" fill="#fff"/>
    <path id="Tracé_47" data-name="Tracé 47" d="M132.766,101.121h-.013a1.225,1.225,0,0,1-.991.478,1.527,1.527,0,0,1,0-3.04,1.242,1.242,0,0,1,.986.491h.013V96.464h.49v5.055h-.49Zm-1.882-1.073a1,1,0,0,0,.944,1.1.982.982,0,0,0,.962-1.091.963.963,0,0,0-.968-1.042A.977.977,0,0,0,130.885,100.048Z" transform="translate(-100.339 -96.464)" fill="#fff"/>
    <path id="Tracé_48" data-name="Tracé 48" d="M136.308,97.065l-.7,1.563-.331-.13.576-1.6Z" transform="translate(-101.247 -96.545)" fill="#fff"/>
    <path id="Tracé_49" data-name="Tracé 49" d="M138.393,100.74c0,.484.056.9.65.9s.65-.417.65-.9v-1.6h.49v1.66c0,.766-.288,1.3-1.14,1.3s-1.14-.534-1.14-1.3v-1.66h.49Z" transform="translate(-101.733 -96.959)" fill="#fff"/>
    <path id="Tracé_50" data-name="Tracé 50" d="M142.626,101.779h-.49V99.352h-.3V98.9h.3V97.863h.49V98.9h.516v.453h-.516Z" transform="translate(-102.463 -96.723)" fill="#fff"/>
    <path id="Tracé_51" data-name="Tracé 51" d="M145.04,97.723a.349.349,0,0,1-.7,0,.349.349,0,1,1,.7,0Zm-.105,3.965h-.49v-2.88h.49Z" transform="translate(-102.927 -96.633)" fill="#fff"/>
    <path id="Tracé_52" data-name="Tracé 52" d="M147.177,101.519h-.49V96.464h.49Z" transform="translate(-103.362 -96.464)" fill="#fff"/>
    <path id="Tracé_53" data-name="Tracé 53" d="M149.47,97.723a.349.349,0,0,1-.7,0,.349.349,0,0,1,.7,0Zm-.105,3.965h-.49v-2.88h.49Z" transform="translate(-103.748 -96.633)" fill="#fff"/>
    <path id="Tracé_54" data-name="Tracé 54" d="M151.584,101.779h-.49V99.352h-.3V98.9h.3V97.863h.49V98.9h.515v.453h-.515Z" transform="translate(-104.123 -96.723)" fill="#fff"/>
    <path id="Tracé_55" data-name="Tracé 55" d="M153.5,100.3a.931.931,0,0,0,.943.962.985.985,0,0,0,.876-.595l.416.239a1.453,1.453,0,0,1-1.329.81A1.394,1.394,0,0,1,153,100.229a1.4,1.4,0,1,1,2.764.068Zm1.746-.416a.879.879,0,0,0-.845-.754.911.911,0,0,0-.877.754Zm-.239-2.574-.938.944-.307-.172.729-1.005Z" transform="translate(-104.532 -96.577)" fill="#fff"/>
    <path id="Tracé_56" data-name="Tracé 56" d="M160.746,99.527h.011a1.216,1.216,0,0,1,.993-.491,1.432,1.432,0,0,1,1.379,1.526,1.4,1.4,0,0,1-1.386,1.514,1.217,1.217,0,0,1-.986-.484h-.011v2.022h-.49v-4.5h.49Zm-.025,1a.994.994,0,0,0,.943,1.1.982.982,0,0,0,.963-1.091.962.962,0,0,0-.968-1.042A.976.976,0,0,0,160.72,100.525Z" transform="translate(-105.878 -96.941)" fill="#fff"/>
    <path id="Tracé_57" data-name="Tracé 57" d="M165.445,100.74c0,.484.055.9.648.9s.651-.417.651-.9v-1.6h.49v1.66c0,.766-.288,1.3-1.141,1.3s-1.139-.534-1.139-1.3v-1.66h.49Z" transform="translate(-106.749 -96.959)" fill="#fff"/>
    <path id="Tracé_58" data-name="Tracé 58" d="M169.2,96.464h.49V99.05h.011a1.239,1.239,0,0,1,.986-.491,1.527,1.527,0,0,1,.007,3.04,1.215,1.215,0,0,1-.993-.478h-.011v.4h-.49Zm.465,3.584a.994.994,0,0,0,.943,1.1.982.982,0,0,0,.962-1.091.962.962,0,0,0-.967-1.042A.976.976,0,0,0,169.662,100.048Z" transform="translate(-107.535 -96.464)" fill="#fff"/>
    <path id="Tracé_59" data-name="Tracé 59" d="M174.418,101.519h-.49V96.464h.49Z" transform="translate(-108.413 -96.464)" fill="#fff"/>
    <path id="Tracé_60" data-name="Tracé 60" d="M176.708,97.723a.349.349,0,0,1-.7,0,.349.349,0,1,1,.7,0Zm-.1,3.965h-.49v-2.88h.49Z" transform="translate(-108.799 -96.633)" fill="#fff"/>
    <path id="Tracé_61" data-name="Tracé 61" d="M180.946,103.614h-.49v-2.022h-.013a1.221,1.221,0,0,1-.986.484,1.4,1.4,0,0,1-1.386-1.508,1.431,1.431,0,0,1,1.38-1.532,1.219,1.219,0,0,1,.992.491h.013v-.411h.49Zm-2.373-3.089a1,1,0,0,0,.944,1.1.982.982,0,0,0,.962-1.091.962.962,0,0,0-.967-1.042A.977.977,0,0,0,178.573,100.525Z" transform="translate(-109.181 -96.941)" fill="#fff"/>
    <path id="Tracé_62" data-name="Tracé 62" d="M183.533,100.74c0,.484.056.9.649.9s.651-.417.651-.9v-1.6h.49v1.66c0,.766-.288,1.3-1.141,1.3s-1.139-.534-1.139-1.3v-1.66h.49Z" transform="translate(-110.103 -96.959)" fill="#fff"/>
    <path id="Tracé_63" data-name="Tracé 63" d="M187.5,100.66a.933.933,0,0,0,.943.962.987.987,0,0,0,.877-.595l.416.239a1.454,1.454,0,0,1-1.33.81,1.529,1.529,0,1,1,1.355-1.416Zm1.747-.416a.88.88,0,0,0-.846-.754.912.912,0,0,0-.877.754Z" transform="translate(-110.836 -96.941)" fill="#fff"/>
  </g>
  <g id="Groupe_8" data-name="Groupe 8">
    <path id="Tracé_64" data-name="Tracé 64" d="M14.331,36.442v47.3H222.195v-47.3Zm147.5,45.974H15.66V37.771H161.834ZM215.141,59.08a10.051,10.051,0,0,1-3.05-.109,7.35,7.35,0,0,0-1.562-.216c-.1,1.32.2,2.633,0,3.956a17.15,17.15,0,0,1-.358,1.955l-.086.22c-.729,2.3-3.183,4.926-5.371,7.212a4.963,4.963,0,0,1-1.462,2.192c-.531.276-1.058-.16-1.492.02-.649.3-1.187,1.788-1.89,3.05a2.937,2.937,0,0,1-.576.891,1.219,1.219,0,0,1-.575.137c-.5,0-.91-.273-.91-.609a.116.116,0,0,1,0-.017h0a3.8,3.8,0,0,1,.193-.739A11.126,11.126,0,0,1,201.224,73c-1.645-1.667-3.389-3.214-5.084-4.819l-.012-.006c-1.8-1.814-3.979-3.681-5.9-5.569-1.327-1.162-2.605-2.492-3.887-3.7a.191.191,0,0,0-.264,0c-.087-.014-1.1,3.655-1.6,5.5a40.135,40.135,0,0,0-.741,4.319,2.466,2.466,0,0,1-1.486,1.793,1.036,1.036,0,0,1-.753-.089.857.857,0,0,1-.244-.557c-.1-.843.554-2.382.765-3.417.514-1.88.964-3.786,1.529-5.647.207-.789.309-1.053.447-1.592l-.049-.1a49.8,49.8,0,0,0-5.084.289c-1.581,1.892-2.91,3.9-4.518,5.789a34.9,34.9,0,0,1-4.291,4.853,1.625,1.625,0,0,1-1.492.467.684.684,0,0,1-.487-.4c-.211-.986.731-1.681,1.35-2.365a79.348,79.348,0,0,0,7.377-8.2,2.066,2.066,0,0,0-.828.071c-.424.071-1.09.307-1.4-.037a.919.919,0,0,1-.134-.9c.442-.7,1.511-.756,2.324-.971l1.564-.213c3.009-3.14,5.612-6.788,9.2-9.118a1.632,1.632,0,0,1,1.826-.053.718.718,0,0,1,.234.755,5.911,5.911,0,0,1-.448,1.285c-.188.348-.3.633-.5,1.091-.339.9-.706,1.818-1.048,2.73a23.233,23.233,0,0,0-.831,2.409.251.251,0,0,0,.265.037,83.206,83.206,0,0,1,10.8-6.616,3.476,3.476,0,0,0,.83-.755.6.6,0,0,0,.1-.574c-.232-.433-.686-.463-1.03-.685-4.256-1.2-13.245-1.034-13.754-1.043a.828.828,0,0,1-.552-.355.586.586,0,0,1,.121-.71,7.179,7.179,0,0,1,4.485-.986c4.153-.082,9.623.936,11.666,1.871.77.366,1.834.713,1.893,1.942v.214c-.27,1.513-2.054,1.876-3.091,2.662-2.467,1.33-4.939,2.641-7.378,4.063a5.7,5.7,0,0,0-1.329.862l1.824-.026c.718-.033,10.947-.172,16.32-.043l.033-.037a11.479,11.479,0,0,0-.352-1.9c-.231-.729-.231-.749-.231-.749l-.248-.659a4.816,4.816,0,0,0-.468-.934,18.5,18.5,0,0,0-3.552-4.53c-1.282-1.092-3.644-3.171-3.736-3.4,0,0-.38-.436-.2-.781.089-.171.149-.41.828-.688,0,0,1.324-.521,1.492-.02a12.63,12.63,0,0,0,3.223,3.929,12.524,12.524,0,0,1,3.2,3.737c.209.378.472.8.691,1.213.009.035.067.116.135.262a19.761,19.761,0,0,1,1.14,3.584l.2,1.079c1.534.065,3.793-.064,5.109.128l0,0Z" transform="translate(-14.331 -36.442)" fill="#fff"/>
    <path id="Tracé_65" data-name="Tracé 65" d="M223.989,54.751c-1.8,1.859-3.54,3.81-5.151,5.789,1.3-.083,2.576-.264,3.823-.394.659-1.938,2.06-5.753,2.06-5.753C224.833,54.025,224.435,54.266,223.989,54.751Z" transform="translate(-52.248 -39.737)" fill="#fff"/>
    <path id="Tracé_66" data-name="Tracé 66" d="M248.128,63.543l-2.359-.145c-5.551-.325-12.154-.12-17,.045-.442.09.071.567.319.818,3.817,3.691,7.691,7.2,11.5,10.678a4.335,4.335,0,0,0,1.4,1.046c.915.483,1.561-.541,2.153-1.036a14.906,14.906,0,0,0,2.633-2.849l.051-.094a2.959,2.959,0,0,0,.315-.553,13.459,13.459,0,0,0,1.1-2.731c.027-.146.1-.4.1-.462a15.435,15.435,0,0,0,.03-3.1C248.3,64.641,248.2,64.08,248.128,63.543Z" transform="translate(-54.056 -41.408)" fill="#fff"/>
  </g>
</svg>
