<svg id="Logo_ARC" data-name="Logo ARC" xmlns="http://www.w3.org/2000/svg" width="314.418" height="84.051" viewBox="0 0 314.418 84.051">
  <g id="Groupe_6" data-name="Groupe 6" transform="translate(11.078 5.719)">
    <g id="Groupe_1" data-name="Groupe 1">
      <path id="Tracé_1" data-name="Tracé 1" d="M27.907,45.441v2.949h5.028v3.881H27.907V59.2H23.322V41.558H33.45v3.883Z" transform="translate(-23.322 -40.973)" fill="#00aec7"/>
      <path id="Tracé_2" data-name="Tracé 2" d="M52.4,50.159a9.379,9.379,0,0,1-9.755,9.732,9.379,9.379,0,0,1-9.754-9.732c0-5.333,4.679-9.076,9.754-9.076S52.4,44.826,52.4,50.159Zm-14.737.023a4.99,4.99,0,1,0,9.965,0,4.994,4.994,0,0,0-9.965,0Z" transform="translate(-21.101 -41.083)" fill="#00aec7"/>
      <path id="Tracé_3" data-name="Tracé 3" d="M50.45,41.558h4.584l8.4,10.784h.046V41.558h4.586V59.2H63.478l-8.4-10.807h-.047V59.2H50.45Z" transform="translate(-17.024 -40.973)" fill="#00aec7"/>
      <path id="Tracé_4" data-name="Tracé 4" d="M67.173,41.558h6.5a8.82,8.82,0,1,1,0,17.639h-6.5Zm4.586,13.755h1.029c2.738,0,5.076-1.5,5.076-4.937,0-3.157-2.081-4.935-5.03-4.935H71.759Z" transform="translate(-13.141 -40.973)" fill="#00aec7"/>
      <path id="Tracé_5" data-name="Tracé 5" d="M86.241,56.131,85.024,59.2H80.159l6.783-17.639h5.006L98.592,59.2H93.7l-1.147-3.066Zm3.2-9.122H89.4l-1.894,5.614h3.811Z" transform="translate(-10.126 -40.973)" fill="#00aec7"/>
      <path id="Tracé_6" data-name="Tracé 6" d="M102.413,59.2H97.829V45.441H94.04V41.558H106.2v3.883h-3.791Z" transform="translate(-6.903 -40.973)" fill="#00aec7"/>
      <path id="Tracé_7" data-name="Tracé 7" d="M109.844,59.2h-4.586V41.558h4.586Z" transform="translate(-4.299 -40.973)" fill="#00aec7"/>
      <path id="Tracé_8" data-name="Tracé 8" d="M130.2,50.159a9.755,9.755,0,0,1-19.509,0c0-5.333,4.679-9.076,9.755-9.076S130.2,44.826,130.2,50.159Zm-14.737.023a4.99,4.99,0,1,0,9.965,0,4.994,4.994,0,0,0-9.965,0Z" transform="translate(-3.038 -41.083)" fill="#00aec7"/>
      <path id="Tracé_9" data-name="Tracé 9" d="M128.248,41.558h4.584l8.4,10.784h.047V41.558h4.584V59.2h-4.584l-8.4-10.807h-.047V59.2h-4.584Z" transform="translate(1.039 -40.973)" fill="#00aec7"/>
      <path id="Tracé_10" data-name="Tracé 10" d="M156.275,56.131,155.058,59.2h-4.865l6.782-17.639h5.009L168.625,59.2h-4.889l-1.146-3.066Zm3.2-9.122h-.046l-1.894,5.614h3.812Z" transform="translate(6.134 -40.973)" fill="#00aec7"/>
      <path id="Tracé_11" data-name="Tracé 11" d="M180.977,59.2h-5.709l-4.327-6.784h-.046V59.2H166.31V41.558h6.855c3.485,0,6.128,1.661,6.128,5.427a4.743,4.743,0,0,1-3.86,4.983Zm-10.082-9.732h.444c1.5,0,3.182-.281,3.182-2.2s-1.683-2.2-3.182-2.2h-.444Z" transform="translate(9.876 -40.973)" fill="#00aec7"/>
      <path id="Tracé_12" data-name="Tracé 12" d="M191.994,47.564a4.971,4.971,0,0,0-4.024-1.941,4.645,4.645,0,0,0-4.7,4.888,4.574,4.574,0,0,0,4.77,4.8,5.27,5.27,0,0,0,3.954-1.872v5.5a13.011,13.011,0,0,1-4.045.818,9.812,9.812,0,0,1-6.621-2.6,8.622,8.622,0,0,1-2.83-6.666,9.238,9.238,0,0,1,2.594-6.457,9.566,9.566,0,0,1,6.715-2.854,10.744,10.744,0,0,1,4.187.89Z" transform="translate(12.706 -41.061)" fill="#00aec7"/>
    </g>
    <g id="Groupe_2" data-name="Groupe 2" transform="translate(6.979 27.325)">
      <path id="Tracé_13" data-name="Tracé 13" d="M30.229,74.845H28.986V63.691h1.836a4.7,4.7,0,0,1,2.765.591,3.075,3.075,0,0,1,1.257,2.544,3.132,3.132,0,0,1-1.065,2.4,4.022,4.022,0,0,1-2.648.739h-.9Zm0-6.036h.828c1.376,0,2.544-.414,2.544-2.011,0-1.819-1.464-1.953-2.915-1.953h-.457Z" transform="translate(-28.986 -63.159)" fill="#00aec7"/>
      <path id="Tracé_14" data-name="Tracé 14" d="M46.2,69.319a5.813,5.813,0,1,1-5.813-5.784A5.782,5.782,0,0,1,46.2,69.319ZM35.812,69.3a4.571,4.571,0,1,0,4.571-4.614A4.611,4.611,0,0,0,35.812,69.3Z" transform="translate(-27.69 -63.195)" fill="#00aec7"/>
      <path id="Tracé_15" data-name="Tracé 15" d="M46.594,70.334a4.122,4.122,0,0,0,.489,2.483,2.873,2.873,0,0,0,2.247,1.066,2.944,2.944,0,0,0,2.19-.991,3.833,3.833,0,0,0,.548-2.558V63.691h1.242v6.982a3.919,3.919,0,0,1-.976,3.092,4.1,4.1,0,0,1-3,1.27A4.182,4.182,0,0,1,46.446,73.9a3.933,3.933,0,0,1-1.094-3.225V63.691h1.242Z" transform="translate(-25.186 -63.159)" fill="#00aec7"/>
      <path id="Tracé_16" data-name="Tracé 16" d="M54.843,74.845H53.6V63.691h1.612c2.116,0,4.083.563,4.083,3.078a2.913,2.913,0,0,1-2.8,3.075l3.55,5H58.527l-3.374-4.9h-.311Zm0-5.992h.386c1.4,0,2.824-.266,2.824-2,0-1.835-1.346-2.012-2.84-2.012h-.37Z" transform="translate(-23.271 -63.159)" fill="#00aec7"/>
      <path id="Tracé_17" data-name="Tracé 17" d="M65.049,73.69h3.078v1.155h-4.32V63.691h1.242Z" transform="translate(-20.902 -63.159)" fill="#00aec7"/>
      <path id="Tracé_18" data-name="Tracé 18" d="M70.176,71.778l-1.347,3.167H67.47l5.146-11.686,5.015,11.686H76.257l-1.318-3.167Zm2.411-5.62-1.909,4.467h3.773Z" transform="translate(-20.051 -63.259)" fill="#00aec7"/>
    </g>
    <g id="Groupe_3" data-name="Groupe 3" transform="translate(69.382 20.953)">
      <path id="Tracé_19" data-name="Tracé 19" d="M94.3,76.1H88.591l-4.329-6.783h-.046V76.1H79.631V58.467h6.856c3.485,0,6.128,1.661,6.128,5.426a4.742,4.742,0,0,1-3.859,4.984Zm-10.082-9.73h.444c1.5,0,3.181-.281,3.181-2.2s-1.684-2.2-3.181-2.2h-.444Z" transform="translate(-79.631 -58)" fill="#00aec7"/>
      <path id="Tracé_20" data-name="Tracé 20" d="M97.125,62.352V65.3h5.17v3.883h-5.17v3.042h5.451V76.1H92.541V58.467h10.035v3.885Z" transform="translate(-76.634 -58)" fill="#00aec7"/>
      <path id="Tracé_21" data-name="Tracé 21" d="M115.757,64.474a4.977,4.977,0,0,0-4.023-1.942,4.646,4.646,0,0,0-4.7,4.889,4.575,4.575,0,0,0,4.771,4.8,5.273,5.273,0,0,0,3.954-1.873v5.5a13.013,13.013,0,0,1-4.046.818,9.821,9.821,0,0,1-6.62-2.6,8.626,8.626,0,0,1-2.83-6.666,9.232,9.232,0,0,1,2.6-6.458,9.553,9.553,0,0,1,6.713-2.852,10.749,10.749,0,0,1,4.187.89Z" transform="translate(-74.377 -58.088)" fill="#00aec7"/>
      <path id="Tracé_22" data-name="Tracé 22" d="M126.715,65.275V58.467H131.3V76.1h-4.585V68.878h-6.62V76.1H115.51V58.467h4.585v6.808Z" transform="translate(-71.301 -58)" fill="#00aec7"/>
      <path id="Tracé_23" data-name="Tracé 23" d="M135.339,62.352V65.3h5.17v3.883h-5.17v3.042h5.45V76.1H130.754V58.467h10.035v3.885Z" transform="translate(-67.762 -58)" fill="#00aec7"/>
      <path id="Tracé_24" data-name="Tracé 24" d="M155.862,76.1h-5.706l-4.33-6.783h-.046V76.1H141.2V58.467h6.855c3.485,0,6.129,1.661,6.129,5.426a4.742,4.742,0,0,1-3.859,4.984Zm-10.082-9.73h.445c1.5,0,3.181-.281,3.181-2.2s-1.684-2.2-3.181-2.2h-.445Z" transform="translate(-65.338 -58)" fill="#00aec7"/>
      <path id="Tracé_25" data-name="Tracé 25" d="M166.879,64.474a4.976,4.976,0,0,0-4.024-1.942,4.646,4.646,0,0,0-4.7,4.889,4.575,4.575,0,0,0,4.772,4.8,5.266,5.266,0,0,0,3.952-1.873v5.5a12.991,12.991,0,0,1-4.045.818,9.816,9.816,0,0,1-6.62-2.6,8.617,8.617,0,0,1-2.83-6.666,9.236,9.236,0,0,1,2.6-6.458,9.553,9.553,0,0,1,6.714-2.852,10.738,10.738,0,0,1,4.186.89Z" transform="translate(-62.508 -58.088)" fill="#00aec7"/>
      <path id="Tracé_26" data-name="Tracé 26" d="M177.838,65.275V58.467h4.584V76.1h-4.584V68.878h-6.622V76.1h-4.584V58.467h4.584v6.808Z" transform="translate(-59.432 -58)" fill="#00aec7"/>
      <path id="Tracé_27" data-name="Tracé 27" d="M186.462,62.352V65.3h5.169v3.883h-5.169v3.042h5.45V76.1H181.877V58.467h10.035v3.885Z" transform="translate(-55.892 -58)" fill="#00aec7"/>
    </g>
    <g id="Groupe_4" data-name="Groupe 4" transform="translate(59.202 48.268)">
      <path id="Tracé_28" data-name="Tracé 28" d="M76.961,82.623a2.048,2.048,0,0,0-1.923-1.212,1.771,1.771,0,0,0-1.849,1.731c0,.96.992,1.4,1.746,1.745l.739.325c1.45.637,2.679,1.362,2.679,3.135a3.521,3.521,0,0,1-6.983.563l1.212-.341a2.3,2.3,0,0,0,2.235,2.074,2.243,2.243,0,0,0,2.292-2.176c0-1.3-1.02-1.746-2.056-2.218l-.68-.3c-1.3-.591-2.426-1.258-2.426-2.856a2.928,2.928,0,0,1,3.122-2.839,3.2,3.2,0,0,1,2.882,1.73Z" transform="translate(-71.369 -80.256)" fill="#00aec7"/>
      <path id="Tracé_29" data-name="Tracé 29" d="M79.732,87.054a4.117,4.117,0,0,0,.488,2.484,2.874,2.874,0,0,0,2.248,1.067,2.956,2.956,0,0,0,2.191-.992,3.849,3.849,0,0,0,.546-2.559V80.413h1.243v6.982a3.916,3.916,0,0,1-.976,3.09,4.1,4.1,0,0,1-3,1.273,4.173,4.173,0,0,1-2.885-1.14,3.926,3.926,0,0,1-1.094-3.223V80.413h1.243Z" transform="translate(-69.716 -80.22)" fill="#00aec7"/>
      <path id="Tracé_30" data-name="Tracé 30" d="M87.98,91.567H86.738V80.413H88.35c2.116,0,4.083.562,4.083,3.075a2.915,2.915,0,0,1-2.8,3.077l3.55,5H91.664l-3.374-4.9h-.31Zm0-5.991h.384c1.406,0,2.825-.269,2.825-2,0-1.835-1.347-2.011-2.84-2.011h-.37Z" transform="translate(-67.801 -80.22)" fill="#00aec7"/>
      <path id="Tracé_31" data-name="Tracé 31" d="M98.187,90.411h3.076v1.156H96.944V80.413h1.243Z" transform="translate(-65.431 -80.22)" fill="#00aec7"/>
      <path id="Tracé_32" data-name="Tracé 32" d="M101.447,80.413h5.783v1.153h-4.541V84.88H107.1v1.155h-4.409v4.377h4.541v1.156h-5.783Z" transform="translate(-64.386 -80.22)" fill="#00aec7"/>
    </g>
    <g id="Groupe_5" data-name="Groupe 5" transform="translate(106.919 41.466)">
      <path id="Tracé_33" data-name="Tracé 33" d="M123.593,81.122a4.979,4.979,0,0,0-4.023-1.942,4.648,4.648,0,0,0-4.7,4.888,4.575,4.575,0,0,0,4.772,4.8,5.281,5.281,0,0,0,3.954-1.87v5.5a13.047,13.047,0,0,1-4.048.818,9.821,9.821,0,0,1-6.619-2.6,8.627,8.627,0,0,1-2.831-6.667,9.23,9.23,0,0,1,2.6-6.457,9.552,9.552,0,0,1,6.714-2.854,10.753,10.753,0,0,1,4.187.89Z" transform="translate(-110.095 -74.736)" fill="#00aec7"/>
      <path id="Tracé_34" data-name="Tracé 34" d="M128.138,89.689l-1.217,3.066h-4.865l6.783-17.639h5.005l6.644,17.639H135.6l-1.145-3.066Zm3.2-9.123h-.047L129.4,86.181h3.812Z" transform="translate(-107.318 -74.648)" fill="#00aec7"/>
      <path id="Tracé_35" data-name="Tracé 35" d="M138.172,75.116h4.585l8.4,10.783h.046V75.116h4.585V92.755H151.2l-8.4-10.809h-.047V92.755h-4.585Z" transform="translate(-103.576 -74.648)" fill="#00aec7"/>
      <path id="Tracé_36" data-name="Tracé 36" d="M167.672,81.122a4.971,4.971,0,0,0-4.022-1.942,4.646,4.646,0,0,0-4.7,4.888,4.574,4.574,0,0,0,4.772,4.8,5.272,5.272,0,0,0,3.952-1.87v5.5a13.025,13.025,0,0,1-4.045.818,9.817,9.817,0,0,1-6.62-2.6,8.622,8.622,0,0,1-2.83-6.667,9.229,9.229,0,0,1,2.6-6.457,9.548,9.548,0,0,1,6.712-2.854,10.74,10.74,0,0,1,4.188.89Z" transform="translate(-99.861 -74.736)" fill="#00aec7"/>
      <path id="Tracé_37" data-name="Tracé 37" d="M172.01,79v2.946h5.173v3.883H172.01v3.042h5.451v3.884H167.426V75.116h10.035V79Z" transform="translate(-96.784 -74.648)" fill="#00aec7"/>
      <path id="Tracé_38" data-name="Tracé 38" d="M192.532,92.755h-5.7L182.5,85.97h-.046v6.784h-4.585V75.116h6.855c3.485,0,6.129,1.66,6.129,5.427a4.744,4.744,0,0,1-3.86,4.984Zm-10.08-9.732h.445c1.5,0,3.181-.281,3.181-2.2s-1.684-2.2-3.181-2.2h-.445Z" transform="translate(-94.36 -74.648)" fill="#00aec7"/>
    </g>
  </g>
  <g id="Groupe_7" data-name="Groupe 7" transform="translate(97.551 73.958)">
    <path id="Tracé_39" data-name="Tracé 39" d="M94.278,103.987H93.5V97h1.01c1.326,0,2.558.352,2.558,1.928a1.826,1.826,0,0,1-1.752,1.927l2.225,3.133h-.955l-2.113-3.068h-.2Zm0-3.754h.243c.88,0,1.769-.166,1.769-1.252,0-1.148-.843-1.259-1.779-1.259h-.233Z" transform="translate(-93.501 -96.34)" fill="#00aec7"/>
    <path id="Tracé_40" data-name="Tracé 40" d="M98.4,101.493a1.411,1.411,0,0,0,1.428,1.455,1.491,1.491,0,0,0,1.325-.9l.63.361a2.2,2.2,0,0,1-2.01,1.225,2.109,2.109,0,0,1-2.133-2.244,2.112,2.112,0,1,1,4.181.1Zm2.642-.63a1.33,1.33,0,0,0-1.279-1.141,1.377,1.377,0,0,0-1.326,1.141Z" transform="translate(-92.541 -95.867)" fill="#00aec7"/>
    <path id="Tracé_41" data-name="Tracé 41" d="M105.55,100.456h-.02a1.676,1.676,0,0,0-1.352-.733,1.558,1.558,0,0,0-1.539,1.613,1.527,1.527,0,0,0,1.5,1.613,1.7,1.7,0,0,0,1.419-.75h.017v.991a2.371,2.371,0,0,1-1.381.446,2.257,2.257,0,0,1-2.318-2.3,2.3,2.3,0,0,1,2.328-2.3,2.347,2.347,0,0,1,1.344.436Z" transform="translate(-91.556 -95.867)" fill="#00aec7"/>
    <path id="Tracé_42" data-name="Tracé 42" d="M105.873,101.344a2.289,2.289,0,1,1,2.289,2.291A2.287,2.287,0,0,1,105.873,101.344Zm.74-.009a1.55,1.55,0,1,0,1.549-1.613A1.544,1.544,0,0,0,106.614,101.335Z" transform="translate(-90.629 -95.867)" fill="#00aec7"/>
    <path id="Tracé_43" data-name="Tracé 43" d="M111.533,99.687h.019a1.461,1.461,0,0,1,1.241-.651c1.206,0,1.485.871,1.485,1.891v2.586h-.742v-2.456c0-.706-.057-1.336-.918-1.336-1.019,0-1.084.945-1.084,1.724v2.068h-.743V99.158h.743Z" transform="translate(-89.487 -95.867)" fill="#00aec7"/>
    <path id="Tracé_44" data-name="Tracé 44" d="M115.88,99.687h.017a1.463,1.463,0,0,1,1.242-.651c1.206,0,1.484.871,1.484,1.891v2.586h-.741v-2.456c0-.706-.057-1.336-.918-1.336-1.02,0-1.084.945-1.084,1.724v2.068h-.743V99.158h.743Z" transform="translate(-88.478 -95.867)" fill="#00aec7"/>
    <path id="Tracé_45" data-name="Tracé 45" d="M120.181,101.562c0,.732.085,1.363.983,1.363s.983-.631.983-1.363V99.135h.742v2.511c0,1.158-.436,1.965-1.725,1.965s-1.724-.807-1.724-1.965V99.135h.741Z" transform="translate(-87.479 -95.844)" fill="#00aec7"/>
    <path id="Tracé_46" data-name="Tracé 46" d="M124.156,101.493a1.41,1.41,0,0,0,1.427,1.455,1.492,1.492,0,0,0,1.326-.9l.63.361a2.2,2.2,0,0,1-2.011,1.225,2.109,2.109,0,0,1-2.132-2.244,2.112,2.112,0,1,1,4.181.1Zm2.642-.63a1.33,1.33,0,0,0-1.279-1.141,1.379,1.379,0,0,0-1.327,1.141Z" transform="translate(-86.56 -95.867)" fill="#00aec7"/>
    <path id="Tracé_47" data-name="Tracé 47" d="M133.989,103.508h-.02a1.853,1.853,0,0,1-1.5.723,2.31,2.31,0,0,1,.007-4.6,1.878,1.878,0,0,1,1.492.743h.02V96.464h.742v7.647h-.742Zm-2.846-1.623a1.5,1.5,0,0,0,1.428,1.66,1.485,1.485,0,0,0,1.455-1.65,1.457,1.457,0,0,0-1.464-1.576A1.477,1.477,0,0,0,131.142,101.886Z" transform="translate(-84.938 -96.464)" fill="#00aec7"/>
    <path id="Tracé_48" data-name="Tracé 48" d="M136.835,97.15l-1.056,2.365-.5-.2.871-2.419Z" transform="translate(-83.801 -96.363)" fill="#00aec7"/>
    <path id="Tracé_49" data-name="Tracé 49" d="M138.644,101.562c0,.732.085,1.363.983,1.363s.983-.631.983-1.363V99.135h.742v2.511c0,1.158-.436,1.965-1.725,1.965s-1.724-.807-1.724-1.965V99.135h.741Z" transform="translate(-83.192 -95.844)" fill="#00aec7"/>
    <path id="Tracé_50" data-name="Tracé 50" d="M143.031,103.786h-.741v-3.671h-.455V99.43h.455V97.863h.741V99.43h.78v.685h-.78Z" transform="translate(-82.279 -96.139)" fill="#00aec7"/>
    <path id="Tracé_51" data-name="Tracé 51" d="M145.4,97.9a.528.528,0,0,1-1.056,0,.528.528,0,1,1,1.056,0Zm-.159,6H144.5V99.544h.741Z" transform="translate(-81.697 -96.253)" fill="#00aec7"/>
    <path id="Tracé_52" data-name="Tracé 52" d="M147.429,104.111h-.742V96.464h.742Z" transform="translate(-81.153 -96.464)" fill="#00aec7"/>
    <path id="Tracé_53" data-name="Tracé 53" d="M149.828,97.9a.529.529,0,0,1-1.057,0,.529.529,0,1,1,1.057,0Zm-.159,6h-.742V99.544h.742Z" transform="translate(-80.669 -96.253)" fill="#00aec7"/>
    <path id="Tracé_54" data-name="Tracé 54" d="M151.989,103.786h-.742v-3.671h-.455V99.43h.455V97.863h.742V99.43h.779v.685h-.779Z" transform="translate(-80.199 -96.139)" fill="#00aec7"/>
    <path id="Tracé_55" data-name="Tracé 55" d="M153.758,101.949a1.409,1.409,0,0,0,1.427,1.455,1.49,1.49,0,0,0,1.325-.9l.63.361a2.2,2.2,0,0,1-2.01,1.225A2.108,2.108,0,0,1,153,101.846a2.112,2.112,0,1,1,4.181.1Zm2.641-.63a1.329,1.329,0,0,0-1.278-1.141,1.378,1.378,0,0,0-1.327,1.141Zm-.361-3.894-1.418,1.428-.464-.26,1.1-1.521Z" transform="translate(-79.687 -96.323)" fill="#00aec7"/>
    <path id="Tracé_56" data-name="Tracé 56" d="M161,99.779h.017a1.84,1.84,0,0,1,1.5-.743,2.165,2.165,0,0,1,2.086,2.308,2.119,2.119,0,0,1-2.1,2.291,1.842,1.842,0,0,1-1.492-.732H161v3.058h-.741v-6.8H161Zm-.038,1.509a1.5,1.5,0,0,0,1.427,1.66,1.486,1.486,0,0,0,1.456-1.65,1.456,1.456,0,0,0-1.464-1.576A1.476,1.476,0,0,0,160.958,101.288Z" transform="translate(-78.002 -95.867)" fill="#00aec7"/>
    <path id="Tracé_57" data-name="Tracé 57" d="M165.7,101.562c0,.732.084,1.363.981,1.363s.984-.631.984-1.363V99.135h.742v2.511c0,1.158-.436,1.965-1.726,1.965s-1.723-.807-1.723-1.965V99.135h.742Z" transform="translate(-76.911 -95.844)" fill="#00aec7"/>
    <path id="Tracé_58" data-name="Tracé 58" d="M169.2,96.464h.742v3.912h.016a1.874,1.874,0,0,1,1.492-.743,2.309,2.309,0,0,1,.01,4.6,1.837,1.837,0,0,1-1.5-.723h-.016v.6H169.2Zm.7,5.422a1.5,1.5,0,0,0,1.427,1.66,1.486,1.486,0,0,0,1.455-1.65,1.456,1.456,0,0,0-1.463-1.576A1.476,1.476,0,0,0,169.9,101.886Z" transform="translate(-75.926 -96.464)" fill="#00aec7"/>
    <path id="Tracé_59" data-name="Tracé 59" d="M174.669,104.111h-.741V96.464h.741Z" transform="translate(-74.828 -96.464)" fill="#00aec7"/>
    <path id="Tracé_60" data-name="Tracé 60" d="M177.066,97.9a.528.528,0,0,1-1.056,0,.528.528,0,1,1,1.056,0Zm-.157,6h-.74V99.544h.74Z" transform="translate(-74.345 -96.253)" fill="#00aec7"/>
    <path id="Tracé_61" data-name="Tracé 61" d="M182.42,105.961h-.742V102.9h-.02a1.847,1.847,0,0,1-1.492.732,2.117,2.117,0,0,1-2.1-2.281,2.165,2.165,0,0,1,2.087-2.318,1.844,1.844,0,0,1,1.5.743h.02v-.621h.742Zm-3.589-4.672a1.5,1.5,0,0,0,1.428,1.66,1.485,1.485,0,0,0,1.455-1.65,1.456,1.456,0,0,0-1.463-1.576A1.477,1.477,0,0,0,178.83,101.288Z" transform="translate(-73.866 -95.867)" fill="#00aec7"/>
    <path id="Tracé_62" data-name="Tracé 62" d="M183.783,101.562c0,.732.085,1.363.982,1.363s.985-.631.985-1.363V99.135h.742v2.511c0,1.158-.436,1.965-1.726,1.965s-1.722-.807-1.722-1.965V99.135h.74Z" transform="translate(-72.712 -95.844)" fill="#00aec7"/>
    <path id="Tracé_63" data-name="Tracé 63" d="M187.758,101.493a1.412,1.412,0,0,0,1.427,1.455,1.493,1.493,0,0,0,1.327-.9l.63.361a2.2,2.2,0,0,1-2.012,1.225,2.313,2.313,0,1,1,2.049-2.142Zm2.643-.63a1.332,1.332,0,0,0-1.28-1.141,1.38,1.38,0,0,0-1.327,1.141Z" transform="translate(-71.794 -95.867)" fill="#00aec7"/>
  </g>
  <g id="Groupe_8" data-name="Groupe 8">
    <path id="Tracé_65" data-name="Tracé 65" d="M226.63,55.026c-2.722,2.812-5.355,5.763-7.792,8.756,1.962-.126,3.9-.4,5.783-.6,1-2.931,3.116-8.7,3.116-8.7C227.906,53.928,227.3,54.293,226.63,55.026Z" transform="translate(33.15 -32.316)" fill="#00aec7"/>
    <path id="Tracé_66" data-name="Tracé 66" d="M258.142,63.705l-3.568-.219c-8.4-.492-18.384-.181-25.717.068-.669.137.107.858.483,1.237,5.774,5.583,11.634,10.891,17.392,16.151a6.557,6.557,0,0,0,2.111,1.582c1.384.731,2.361-.818,3.257-1.567a22.551,22.551,0,0,0,3.982-4.31l.078-.142a4.476,4.476,0,0,0,.477-.837,20.353,20.353,0,0,0,1.657-4.131c.041-.221.154-.609.154-.7a23.342,23.342,0,0,0,.046-4.69C258.409,65.366,258.257,64.519,258.142,63.705Z" transform="translate(35.415 -30.224)" fill="#00aec7"/>
    <path id="Tracé_64" data-name="Tracé 64" d="M14.331,36.442v71.551H328.749V36.442Zm223.116,69.541H16.341V38.452H237.447Zm80.634-35.3a15.2,15.2,0,0,1-4.613-.165,11.117,11.117,0,0,0-2.363-.327c-.153,2,.3,3.982,0,5.983a25.938,25.938,0,0,1-.542,2.957l-.129.333c-1.1,3.477-4.814,7.451-8.125,10.908-.575,1.176-1.09,2.616-2.212,3.316-.8.418-1.6-.243-2.257.03-.982.456-1.8,2.7-2.859,4.613a4.443,4.443,0,0,1-.871,1.348,1.845,1.845,0,0,1-.87.207c-.76,0-1.376-.413-1.376-.922a.178.178,0,0,1,.007-.026h0a5.753,5.753,0,0,1,.292-1.118c.9-2.393,3.041-4.489,4.873-6.089-2.489-2.521-5.126-4.861-7.69-7.29l-.018-.009c-2.729-2.744-6.019-5.568-8.931-8.423-2.007-1.757-3.94-3.769-5.88-5.6a.288.288,0,0,0-.4,0c-.132-.021-1.661,5.529-2.414,8.321a60.731,60.731,0,0,0-1.121,6.533,3.729,3.729,0,0,1-2.247,2.712,1.567,1.567,0,0,1-1.139-.134,1.3,1.3,0,0,1-.368-.843c-.156-1.275.838-3.6,1.157-5.169.777-2.844,1.459-5.727,2.313-8.541.313-1.194.467-1.593.676-2.408l-.074-.145a75.333,75.333,0,0,0-7.69.437c-2.392,2.862-4.4,5.906-6.834,8.756a52.8,52.8,0,0,1-6.491,7.341,2.458,2.458,0,0,1-2.257.706,1.034,1.034,0,0,1-.737-.611c-.319-1.491,1.105-2.543,2.042-3.577a120.027,120.027,0,0,0,11.159-12.4,3.125,3.125,0,0,0-1.253.107c-.641.107-1.649.465-2.113-.057a1.39,1.39,0,0,1-.2-1.359c.669-1.065,2.286-1.143,3.515-1.469l2.366-.323c4.552-4.75,8.488-10.268,13.922-13.792a2.469,2.469,0,0,1,2.763-.08,1.086,1.086,0,0,1,.354,1.142,8.937,8.937,0,0,1-.678,1.944c-.285.526-.448.957-.749,1.65-.513,1.364-1.068,2.75-1.586,4.129a35.138,35.138,0,0,0-1.257,3.644.379.379,0,0,0,.4.057c5.2-3.971,10.779-6.961,16.336-10.008a5.258,5.258,0,0,0,1.256-1.142.912.912,0,0,0,.149-.869c-.351-.656-1.037-.7-1.559-1.036-6.438-1.822-20.035-1.564-20.805-1.577a1.253,1.253,0,0,1-.835-.537.886.886,0,0,1,.182-1.073c1.948-1.456,4.467-1.511,6.784-1.491,6.282-.124,14.556,1.416,17.646,2.83,1.165.553,2.775,1.078,2.864,2.937v.324c-.409,2.288-3.107,2.838-4.676,4.027-3.732,2.012-7.471,3.995-11.16,6.146a8.624,8.624,0,0,0-2.01,1.3l2.759-.039c1.085-.051,16.559-.26,24.687-.065l.05-.057a17.363,17.363,0,0,0-.532-2.876c-.349-1.1-.349-1.134-.349-1.134l-.376-1a7.281,7.281,0,0,0-.707-1.413,27.987,27.987,0,0,0-5.374-6.852c-1.939-1.651-5.511-4.8-5.651-5.137,0,0-.575-.659-.3-1.182.134-.259.225-.62,1.253-1.041,0,0,2-.787,2.257-.031a19.1,19.1,0,0,0,4.876,5.943,18.946,18.946,0,0,1,4.842,5.653c.315.572.715,1.216,1.045,1.835.014.053.1.176.2.4a29.887,29.887,0,0,1,1.725,5.422l.3,1.631c2.32.1,5.737-.1,7.728.193l0,0Z" transform="translate(-14.331 -36.442)" fill="#00aec7"/>
  </g>
</svg>
