<svg xmlns="http://www.w3.org/2000/svg" width="79.065" height="79.065" viewBox="0 0 79.065 79.065">
  <g id="Groupe_1613" data-name="Groupe 1613" transform="translate(-38.967 -1260.5)">
    <g id="Groupe_1611" data-name="Groupe 1611" transform="translate(-1.533)">
      <g id="Groupe_86" data-name="Groupe 86" transform="translate(42 1262)">
        <path id="Tracé_102" data-name="Tracé 102" d="M172.065,135.5a38.033,38.033,0,1,1-38.033-38.033A38.034,38.034,0,0,1,172.065,135.5Zm0,0" transform="translate(-96 -97.465)" fill="#fff" stroke="#e2097a" stroke-width="3"/>
      </g>
      <path id="Tracé_1222" data-name="Tracé 1222" d="M275.028,364.089a18.827,18.827,0,0,0-1.764-8.223c-.3-.682-.736-1.021-1.54-.668-.859.377-.688.9-.421,1.579,3.043,7.794,1.861,14.808-3.967,20.914a18.686,18.686,0,0,1-31.855-14.176c.21-9.514,8.643-17.775,18.148-17.877a19.726,19.726,0,0,1,8.171,1.625c.668.289,1.209.376,1.6-.456.507-1.084-.232-1.357-.968-1.669a20.966,20.966,0,1,0,12.6,18.951Zm-20.972,11.253a11.68,11.68,0,0,0,6.382-2.159c.435-.332,1.028-.691.54-1.376a1.135,1.135,0,0,0-1.754-.394c-3.413,2.228-6.828,2.294-10.195-.114-.761-.544-1.209-.065-1.629.451-.472.58-.057.955.374,1.309A11.383,11.383,0,0,0,254.056,375.342Zm12.224-18.775a.907.907,0,0,0,.553-.7,4.084,4.084,0,0,1,2.93-2.951c.293-.09.715-.188.732-.552.02-.45-.461-.55-.775-.651a4.02,4.02,0,0,1-2.837-2.88c-.084-.3-.221-.666-.594-.7-.466-.044-.617.384-.712.708a4.346,4.346,0,0,1-3.078,2.981c-.277.093-.725.127-.707.54.014.313.393.41.649.475a4.484,4.484,0,0,1,3.243,3.134C265.774,356.226,265.892,356.509,266.28,356.567Zm3.23-9.792a.688.688,0,0,0,.49-.508,4.614,4.614,0,0,1,3.178-3.2c.846-.293.689-.851-.068-1.1a4.449,4.449,0,0,1-3.075-3.144c-.076-.257-.186-.59-.527-.594s-.453.335-.538.587a4.54,4.54,0,0,1-3.189,3.179c-.251.071-.58.211-.6.532-.027.352.326.468.572.537a4.455,4.455,0,0,1,3.21,3.144C269.038,346.458,269.163,346.748,269.51,346.775Zm6.544-1.965a.446.446,0,0,0-.457.336,4.938,4.938,0,0,1-3.514,3.532c-.651.2-.41.65.065.815a4.821,4.821,0,0,1,3.379,3.35c.184.65.692.771.948.034a4.918,4.918,0,0,1,3.269-3.325c.256-.082.57-.222.518-.581-.04-.279-.326-.359-.55-.421a4.436,4.436,0,0,1-3.14-3.1A.837.837,0,0,0,276.054,344.81Zm-31.68,18.305a2.015,2.015,0,0,0,2,2.005,1.88,1.88,0,0,0,2.012-1.936,1.936,1.936,0,0,0-1.876-2.1A2.11,2.11,0,0,0,244.374,363.115Zm19.581-.006a2,2,0,0,0-1.973-2.024,2.077,2.077,0,0,0-2.046,1.988A2,2,0,0,0,262,365.131,1.943,1.943,0,0,0,263.955,363.109Z" transform="translate(-176.729 938.261)" fill="#e2097a" stroke="#e2097a" stroke-width="1"/>
    </g>
    <g id="Groupe_1612" data-name="Groupe 1612">
      <circle id="Ellipse_23" data-name="Ellipse 23" cx="8.5" cy="8.5" r="8.5" transform="translate(97 1316)" fill="#00a5c4"/>
      <text id="_" data-name="+" transform="translate(101 1329)" fill="#fff" stroke="rgba(0,0,0,0)" stroke-width="1" font-size="14" font-family="MuseoSans-900, MuseoSans-900 ☞" font-weight="900"><tspan x="0" y="0">+</tspan></text>
    </g>
  </g>
</svg>
