<svg xmlns="http://www.w3.org/2000/svg" width="76.065" height="76.065" viewBox="0 0 76.065 76.065">
  <g id="Groupe_1610" data-name="Groupe 1610" transform="translate(-42 -1262)">
    <g id="Groupe_86" data-name="Groupe 86" transform="translate(42 1262)">
      <path id="Tracé_102" data-name="Tracé 102" d="M172.065,135.5a38.033,38.033,0,1,1-38.033-38.033A38.034,38.034,0,0,1,172.065,135.5Zm0,0" transform="translate(-96 -97.465)" fill="#fff"/>
    </g>
    <path id="Icon_awesome-instagram" data-name="Icon awesome-instagram" d="M20.853,12.4A10.691,10.691,0,1,0,31.544,23.087,10.674,10.674,0,0,0,20.853,12.4Zm0,17.641a6.95,6.95,0,1,1,6.95-6.95A6.963,6.963,0,0,1,20.853,30.037ZM34.475,11.959a2.494,2.494,0,1,1-2.494-2.494A2.488,2.488,0,0,1,34.475,11.959Zm7.081,2.531c-.158-3.34-.921-6.3-3.368-8.737s-5.4-3.2-8.737-3.368c-3.443-.2-13.761-.2-17.2,0-3.331.158-6.29.921-8.737,3.359S.309,11.14.141,14.48c-.2,3.443-.2,13.761,0,17.2.158,3.34.921,6.3,3.368,8.737s5.4,3.2,8.737,3.368c3.443.2,13.761.2,17.2,0,3.34-.158,6.3-.921,8.737-3.368s3.2-5.4,3.368-8.737c.2-3.443.2-13.752,0-17.195ZM37.108,35.378a7.037,7.037,0,0,1-3.964,3.964c-2.745,1.089-9.258.837-12.291.837s-9.556.242-12.291-.837A7.037,7.037,0,0,1,4.6,35.378c-1.089-2.745-.837-9.258-.837-12.291S3.519,13.531,4.6,10.8A7.037,7.037,0,0,1,8.562,6.832c2.745-1.089,9.258-.837,12.291-.837s9.556-.242,12.291.837A7.037,7.037,0,0,1,37.108,10.8c1.089,2.745.837,9.258.837,12.291S38.2,32.643,37.108,35.378Z" transform="translate(59.184 1276.946)" fill="#e2097a"/>
  </g>
</svg>
