<svg id="Groupe_484" data-name="Groupe 484" xmlns="http://www.w3.org/2000/svg" width="76.065" height="76.065" viewBox="0 0 76.065 76.065">
  <path id="Tracé_104" data-name="Tracé 104" d="M172.065,135.5a38.033,38.033,0,1,1-38.033-38.033A38.034,38.034,0,0,1,172.065,135.5Zm0,0" transform="translate(-96 -97.465)" fill="#fff"/>
  <path id="Icon_awesome-linkedin-in" data-name="Icon awesome-linkedin-in" d="M7.919,35.378H.584V11.758H7.919ZM4.248,8.537A4.268,4.268,0,1,1,8.5,4.248,4.284,4.284,0,0,1,4.248,8.537ZM35.37,35.378H28.052V23.88c0-2.74-.055-6.254-3.813-6.254-3.813,0-4.4,2.977-4.4,6.057v11.7H12.514V11.758h7.035V14.98h.1a7.707,7.707,0,0,1,6.94-3.814c7.423,0,8.788,4.888,8.788,11.237V35.378Z" transform="translate(23.532 16.723)" fill="#e2007a"/>
</svg>
