<svg id="Groupe_383" data-name="Groupe 383" xmlns="http://www.w3.org/2000/svg" width="76.065" height="76.065" viewBox="0 0 76.065 76.065">
  <path id="Tracé_104" data-name="Tracé 104" d="M172.065,135.5a38.033,38.033,0,1,1-38.033-38.033A38.034,38.034,0,0,1,172.065,135.5Zm0,0" transform="translate(-96 -97.465)" fill="#fff"/>
  <path id="Icon_ionic-logo-whatsapp" data-name="Icon ionic-logo-whatsapp" d="M21.469,2.25A18.462,18.462,0,0,0,2.935,20.64a18.2,18.2,0,0,0,2.659,9.5L2.25,40l10.261-3.26A18.565,18.565,0,0,0,40,20.64,18.462,18.462,0,0,0,21.469,2.25Zm9.216,25.374a4.787,4.787,0,0,1-3.278,2.113c-.869.046-.894.674-5.633-1.385s-7.589-7.065-7.813-7.388a9.089,9.089,0,0,1-1.748-4.926,5.251,5.251,0,0,1,1.8-3.853,1.815,1.815,0,0,1,1.284-.54c.373-.006.615-.011.891,0s.69-.058,1.049.9,1.217,3.3,1.327,3.538a.859.859,0,0,1,.009.823,3.219,3.219,0,0,1-.5.765c-.247.265-.52.593-.741.8-.246.225-.5.47-.244.95A14.182,14.182,0,0,0,19.6,22.762a12.931,12.931,0,0,0,3.716,2.471c.465.253.742.225,1.03-.078s1.234-1.327,1.567-1.784.646-.369,1.074-.2,2.71,1.4,3.175,1.648.775.382.886.581A3.892,3.892,0,0,1,30.684,27.624Z" transform="translate(17.978 15.359)" fill="#e2007a"/>
</svg>
