<svg id="Groupe_87" data-name="Groupe 87" xmlns="http://www.w3.org/2000/svg" width="76.065" height="76.065" viewBox="0 0 76.065 76.065">
  <path id="Tracé_104" data-name="Tracé 104" d="M172.065,135.5a38.033,38.033,0,1,1-38.033-38.033A38.034,38.034,0,0,1,172.065,135.5Zm0,0" transform="translate(-96 -97.465)" fill="#fff"/>
  <path id="Tracé_105" data-name="Tracé 105" d="M160.391,128.951a18.164,18.164,0,0,1-5.22,1.431,9.141,9.141,0,0,0,4-5.029,18.272,18.272,0,0,1-5.774,2.2,9.1,9.1,0,0,0-15.492,8.292,25.806,25.806,0,0,1-18.736-9.5,9.1,9.1,0,0,0,2.81,12.139,9.042,9.042,0,0,1-4.118-1.139v.116a9.1,9.1,0,0,0,7.292,8.912,9.082,9.082,0,0,1-4.105.158,9.1,9.1,0,0,0,8.495,6.313,18.4,18.4,0,0,1-13.46,3.764,25.725,25.725,0,0,0,13.933,4.085c16.721,0,25.867-13.854,25.867-25.867,0-.394-.01-.785-.026-1.175a18.454,18.454,0,0,0,4.535-4.7Zm0,0" transform="translate(-99.064 -101.618)" fill="#e2007a"/>
</svg>
