<svg id="Groupe_81" data-name="Groupe 81" xmlns="http://www.w3.org/2000/svg" width="30.918" height="30.918" viewBox="0 0 30.918 30.918">
  <path id="Tracé_104" data-name="Tracé 104" d="M126.918,112.924a15.459,15.459,0,1,1-15.459-15.459,15.459,15.459,0,0,1,15.459,15.459Zm0,0" transform="translate(-96 -97.465)" fill="#fff"/>
  <path id="Tracé_105" data-name="Tracé 105" d="M134.092,126.421a7.383,7.383,0,0,1-2.122.581,3.715,3.715,0,0,0,1.626-2.044,7.427,7.427,0,0,1-2.347.9,3.7,3.7,0,0,0-6.3,3.371,10.489,10.489,0,0,1-7.616-3.862,3.7,3.7,0,0,0,1.142,4.934,3.675,3.675,0,0,1-1.674-.463v.047a3.7,3.7,0,0,0,2.964,3.622,3.691,3.691,0,0,1-1.669.064,3.7,3.7,0,0,0,3.453,2.566,7.48,7.48,0,0,1-5.471,1.53,10.508,10.508,0,0,0,16.177-8.854c0-.16,0-.319-.011-.478a7.5,7.5,0,0,0,1.843-1.912Zm0,0" transform="translate(-109.165 -115.311)" fill="#00a5c4"/>
</svg>
